<?xml version="1.0" encoding="utf-8"?>
<!-- Generator: Adobe Illustrator 27.5.0, SVG Export Plug-In . SVG Version: 6.00 Build 0)  -->
<svg version="1.1" xmlns="http://www.w3.org/2000/svg" xmlns:xlink="http://www.w3.org/1999/xlink" x="0px" y="0px"
	 viewBox="0 0 750 500" style="enable-background:new 0 0 750 500;" xml:space="preserve">
<g id="BACKGROUND">
	<rect style="fill:#FFB2C1;" width="750" height="500"/>
</g>
<g id="OBJECTS">
	<g style="display:none;">
		<g style="display:inline;">
			<line style="fill:none;stroke:#FF5C5C;stroke-miterlimit:10;" x1="164.11" y1="0" x2="164.11" y2="500"/>
			<line style="fill:none;stroke:#FF5C5C;stroke-miterlimit:10;" x1="202.453" y1="0" x2="202.453" y2="500"/>
			<line style="fill:none;stroke:#FF5C5C;stroke-miterlimit:10;" x1="240.797" y1="0" x2="240.797" y2="500"/>
			<line style="fill:none;stroke:#FF5C5C;stroke-miterlimit:10;" x1="279.141" y1="0" x2="279.141" y2="500"/>
			<line style="fill:none;stroke:#FF5C5C;stroke-miterlimit:10;" x1="317.484" y1="0" x2="317.484" y2="500"/>
			<line style="fill:none;stroke:#FF5C5C;stroke-miterlimit:10;" x1="355.828" y1="0" x2="355.828" y2="500"/>
			<line style="fill:none;stroke:#FF5C5C;stroke-miterlimit:10;" x1="394.172" y1="0" x2="394.172" y2="500"/>
			<line style="fill:none;stroke:#FF5C5C;stroke-miterlimit:10;" x1="432.516" y1="0" x2="432.516" y2="500"/>
			<line style="fill:none;stroke:#FF5C5C;stroke-miterlimit:10;" x1="470.859" y1="0" x2="470.859" y2="500"/>
			<line style="fill:none;stroke:#FF5C5C;stroke-miterlimit:10;" x1="509.203" y1="0" x2="509.203" y2="500"/>
			<line style="fill:none;stroke:#FF5C5C;stroke-miterlimit:10;" x1="547.547" y1="0" x2="547.547" y2="500"/>
			<line style="fill:none;stroke:#FF5C5C;stroke-miterlimit:10;" x1="585.89" y1="0" x2="585.89" y2="500"/>
		</g>
		<g style="display:inline;">
			<line style="fill:none;stroke:#FF5C5C;stroke-miterlimit:10;" x1="625" y1="39.11" x2="125" y2="39.11"/>
			<line style="fill:none;stroke:#FF5C5C;stroke-miterlimit:10;" x1="625" y1="77.453" x2="125" y2="77.453"/>
			<line style="fill:none;stroke:#FF5C5C;stroke-miterlimit:10;" x1="625" y1="115.797" x2="125" y2="115.797"/>
			<line style="fill:none;stroke:#FF5C5C;stroke-miterlimit:10;" x1="625" y1="154.141" x2="125" y2="154.141"/>
			<line style="fill:none;stroke:#FF5C5C;stroke-miterlimit:10;" x1="625" y1="192.484" x2="125" y2="192.484"/>
			<line style="fill:none;stroke:#FF5C5C;stroke-miterlimit:10;" x1="625" y1="230.828" x2="125" y2="230.828"/>
			<line style="fill:none;stroke:#FF5C5C;stroke-miterlimit:10;" x1="625" y1="269.172" x2="125" y2="269.172"/>
			<line style="fill:none;stroke:#FF5C5C;stroke-miterlimit:10;" x1="625" y1="307.516" x2="125" y2="307.516"/>
			<line style="fill:none;stroke:#FF5C5C;stroke-miterlimit:10;" x1="625" y1="345.859" x2="125" y2="345.859"/>
			<line style="fill:none;stroke:#FF5C5C;stroke-miterlimit:10;" x1="625" y1="384.203" x2="125" y2="384.203"/>
			<line style="fill:none;stroke:#FF5C5C;stroke-miterlimit:10;" x1="625" y1="422.547" x2="125" y2="422.547"/>
			<line style="fill:none;stroke:#FF5C5C;stroke-miterlimit:10;" x1="625" y1="460.89" x2="125" y2="460.89"/>
		</g>
	</g>
	<g>
		<defs>
			<rect id="SVGID_1_" width="750" height="500"/>
		</defs>
		<clipPath id="SVGID_00000027598115464810929700000003319779037677670581_">
			<use xlink:href="#SVGID_1_"  style="overflow:visible;"/>
		</clipPath>
		<g style="clip-path:url(#SVGID_00000027598115464810929700000003319779037677670581_);">
			<g>
				<g>
					<g>
						<rect x="388.036" y="52.449" style="fill:#FFC2CE;" width="71.101" height="86.857"/>
					</g>
					<g>
						<rect x="468.729" y="52.449" style="fill:#FFC2CE;" width="71.101" height="86.857"/>
					</g>
				</g>
				<g>
					<g>
						<rect x="388.036" y="147.942" style="fill:#FFC2CE;" width="71.101" height="86.857"/>
					</g>
					<g>
						<rect x="468.729" y="147.942" style="fill:#FFC2CE;" width="71.101" height="86.857"/>
					</g>
				</g>
				<g>
					<g>
						<rect x="388.036" y="243.435" style="fill:#FFC2CE;" width="71.101" height="86.857"/>
					</g>
					<g>
						<rect x="468.729" y="243.435" style="fill:#FFC2CE;" width="71.101" height="86.857"/>
					</g>
				</g>
			</g>
			<g>
				<g>
					<g>
						<rect x="210.171" y="52.449" style="fill:#FFC2CE;" width="71.101" height="86.857"/>
					</g>
					<g>
						<rect x="290.863" y="52.449" style="fill:#FFC2CE;" width="71.101" height="86.857"/>
					</g>
				</g>
				<g>
					<g>
						<rect x="210.171" y="147.942" style="fill:#FFC2CE;" width="71.101" height="86.857"/>
					</g>
					<g>
						<rect x="290.863" y="147.942" style="fill:#FFC2CE;" width="71.101" height="86.857"/>
					</g>
				</g>
				<g>
					<g>
						<rect x="210.171" y="243.435" style="fill:#FFC2CE;" width="71.101" height="86.857"/>
					</g>
					<g>
						<rect x="290.863" y="243.435" style="fill:#FFC2CE;" width="71.101" height="86.857"/>
					</g>
				</g>
			</g>
			<g>
				<g>
					<g>
						<rect x="32.305" y="52.449" style="fill:#FFC2CE;" width="71.101" height="86.857"/>
					</g>
					<g>
						<rect x="112.998" y="52.449" style="fill:#FFC2CE;" width="71.101" height="86.857"/>
					</g>
				</g>
				<g>
					<g>
						<rect x="32.305" y="147.942" style="fill:#FFC2CE;" width="71.101" height="86.857"/>
					</g>
					<g>
						<rect x="112.998" y="147.942" style="fill:#FFC2CE;" width="71.101" height="86.857"/>
					</g>
				</g>
				<g>
					<g>
						<rect x="32.305" y="243.435" style="fill:#FFC2CE;" width="71.101" height="86.857"/>
					</g>
					<g>
						<rect x="112.998" y="243.435" style="fill:#FFC2CE;" width="71.101" height="86.857"/>
					</g>
				</g>
			</g>
			<g>
				<g>
					<g>
						<rect x="565.902" y="52.449" style="fill:#FFC2CE;" width="71.101" height="86.857"/>
					</g>
					<g>
						<rect x="646.594" y="52.449" style="fill:#FFC2CE;" width="71.101" height="86.857"/>
					</g>
				</g>
				<g>
					<g>
						<rect x="565.902" y="147.942" style="fill:#FFC2CE;" width="71.101" height="86.857"/>
					</g>
					<g>
						<rect x="646.594" y="147.942" style="fill:#FFC2CE;" width="71.101" height="86.857"/>
					</g>
				</g>
				<g>
					<g>
						<rect x="565.902" y="243.435" style="fill:#FFC2CE;" width="71.101" height="86.857"/>
					</g>
					<g>
						<rect x="646.594" y="243.435" style="fill:#FFC2CE;" width="71.101" height="86.857"/>
					</g>
				</g>
			</g>
		</g>
		<g style="clip-path:url(#SVGID_00000027598115464810929700000003319779037677670581_);">
			<path style="fill:#FF879E;" d="M236.499,271.989c-2.964,2.094-6.906,2.674-10.504,1.181l0,0c-3.603-1.487-5.982-4.681-6.6-8.257
				l0,0c-3.538,0.798-7.392-0.175-10.143-2.925l0,0c-2.756-2.751-3.74-6.6-2.947-10.138l0,0c-3.576-0.613-6.769-2.991-8.262-6.583
				l0,0c-1.498-3.603-0.93-7.546,1.165-10.509l0,0c-3.067-1.936-5.102-5.353-5.107-9.241l0,0c-0.005-3.893,2.023-7.31,5.085-9.252
				l0,0c-2.1-2.964-2.679-6.906-1.187-10.509l0,0c1.488-3.604,4.675-5.982,8.251-6.6l0,0c-0.804-3.538,0.17-7.393,2.92-10.148l0,0
				c2.745-2.756,6.599-3.74,10.138-2.953l0,0c0.607-3.576,2.986-6.769,6.578-8.268l0,0c3.598-1.498,7.54-0.929,10.51,1.159l0,0
				c1.935-3.062,5.347-5.102,9.24-5.107l0,0l0,0l0,0c3.893-0.011,7.311,2.018,9.252,5.074l0,0c2.964-2.1,6.906-2.679,10.509-1.192
				l0,0c3.598,1.487,5.987,4.675,6.605,8.245l0,0c3.532-0.798,7.393,0.17,10.149,2.92l0,0c2.756,2.745,3.745,6.6,2.958,10.138l0,0
				c3.576,0.602,6.769,2.975,8.273,6.572l0,0c1.498,3.598,0.935,7.54-1.154,10.509l0,0c3.062,1.93,5.107,5.342,5.113,9.236l0,0
				c0,0.027,0,0.055,0,0.077l0,0c0,0.016,0,0.027,0,0.038l0,0l0,0l0,0c0,3.893-2.035,7.311-5.096,9.246l0,0
				c2.1,2.964,2.674,6.906,1.181,10.509l0,0l0,0l0,0c-1.493,3.598-4.686,5.977-8.262,6.594l0,0
				c0.798,3.532-0.181,7.387-2.931,10.143l0,0c-2.756,2.75-6.605,3.729-10.143,2.936l0,0c-0.612,3.576-2.991,6.77-6.589,8.262l0,0
				c-3.598,1.498-7.54,0.924-10.509-1.17l0,0c-1.936,3.062-5.348,5.096-9.241,5.102l0,0
				C241.858,277.079,238.44,275.051,236.499,271.989z M194.101,225.516L194.101,225.516L194.101,225.516L194.101,225.516
				L194.101,225.516L194.101,225.516z"/>
		</g>
		<g style="clip-path:url(#SVGID_00000027598115464810929700000003319779037677670581_);">
			<g>
				<g>
					<path style="fill:#515C14;" d="M219.386,326.995c-0.073-0.064-0.139-0.151-0.208-0.228l-0.686-1.763l0.014,0.758
						c-0.077-0.15-0.154-0.299-0.225-0.464c-2.143-29.104-1.498-58.6,4.483-86.387c1.81-8.409,4.28-16.983,9.391-22.757
						c5.111-5.774,13.548-7.785,19.283-2.373c4.164,3.93,5.994,10.853,5.764,17.226c-0.23,6.373-2.224,12.332-4.415,17.987
						c-10.056,25.953-25.006,49.235-30.963,77.104C221.101,327.25,220.288,327.788,219.386,326.995z"/>
				</g>
				<g>
					<path style="fill:#232147;" d="M219.441,327.558c0.231-0.022,0.406-0.264,0.396-0.561
						c-0.566-18.072,5.725-42.923,11.104-60.586c5.837-19.171,11.887-34.247,11.947-34.397c0.11-0.273,0.019-0.617-0.205-0.766
						c-0.221-0.149-0.494-0.05-0.604,0.224c-0.061,0.15-6.128,15.267-11.98,34.487c-5.409,17.763-11.736,42.772-11.163,61.035
						c0.009,0.311,0.219,0.565,0.468,0.566C219.416,327.56,219.428,327.559,219.441,327.558z"/>
				</g>
			</g>
			<g>
				<g>
					<path style="fill:#8C7F1F;" d="M219.088,327.971c0.073-0.064,0.139-0.152,0.208-0.228l0.686-1.763l-0.014,0.758
						c0.076-0.15,0.154-0.299,0.225-0.464c2.143-29.104,1.498-58.6-4.483-86.387c-1.81-8.409-4.28-16.983-9.391-22.757
						s-13.548-7.785-19.283-2.373c-4.164,3.93-5.994,10.853-5.764,17.226c0.23,6.373,2.224,12.332,4.415,17.987
						c10.056,25.953,25.006,49.235,30.963,77.104C217.373,328.227,218.186,328.765,219.088,327.971z"/>
				</g>
				<g>
					<path style="fill:#232147;" d="M219.033,328.535c-0.231-0.022-0.406-0.264-0.396-0.561
						c0.566-18.072-5.725-42.923-11.104-60.586c-5.837-19.171-11.887-34.247-11.947-34.396c-0.11-0.273-0.018-0.617,0.205-0.766
						c0.221-0.149,0.494-0.05,0.604,0.224c0.061,0.15,6.128,15.267,11.98,34.487c5.409,17.763,11.736,42.772,11.163,61.035
						c-0.009,0.311-0.219,0.565-0.468,0.566C219.058,328.536,219.046,328.536,219.033,328.535z"/>
				</g>
			</g>
			<g>
				<g>
					<path style="fill:#8C7F1F;" d="M220.603,326.781c-0.033-0.063-0.056-0.141-0.084-0.211l-0.012-1.395l-0.189,0.526
						c-0.014-0.124-0.028-0.246-0.034-0.379c6.131-20.626,14.288-40.795,25.677-58.389c3.447-5.325,7.391-10.59,12.425-13.235
						c5.033-2.645,11.376-1.825,13.915,3.405c1.844,3.798,1.295,9.049-0.53,13.383c-1.825,4.334-4.757,7.921-7.747,11.247
						c-13.718,15.264-30.113,27.408-41.506,45.065C221.718,327.406,221.017,327.564,220.603,326.781z"/>
				</g>
				<g>
					<path style="fill:#232147;" d="M220.493,327.184c0.165,0.045,0.349-0.076,0.42-0.284c4.334-12.608,15.169-28.097,23.496-38.869
						c9.036-11.692,17.15-20.504,17.23-20.592c0.147-0.16,0.174-0.42,0.059-0.582c-0.114-0.161-0.327-0.163-0.475-0.004
						c-0.081,0.088-8.216,8.924-17.276,20.646c-8.374,10.833-19.274,26.421-23.654,39.163c-0.075,0.217,0.004,0.447,0.175,0.513
						C220.475,327.178,220.484,327.181,220.493,327.184z"/>
				</g>
			</g>
			<g>
				<g>
					<path style="fill:#515C14;" d="M218.098,326.781c0.033-0.063,0.056-0.141,0.084-0.211l0.012-1.395l0.189,0.526
						c0.013-0.124,0.028-0.246,0.034-0.379c-6.131-20.626-14.288-40.795-25.677-58.389c-3.447-5.325-7.391-10.59-12.425-13.235
						c-5.034-2.645-11.376-1.825-13.915,3.405c-1.844,3.798-1.295,9.049,0.53,13.383c1.825,4.334,4.758,7.921,7.747,11.247
						c13.718,15.264,30.113,27.408,41.506,45.065C216.982,327.406,217.683,327.564,218.098,326.781z"/>
				</g>
				<g>
					<path style="fill:#232147;" d="M218.207,327.184c-0.165,0.045-0.349-0.076-0.42-0.284
						c-4.334-12.608-15.169-28.097-23.496-38.869c-9.036-11.692-17.149-20.504-17.23-20.592c-0.147-0.16-0.174-0.42-0.059-0.582
						c0.114-0.161,0.327-0.163,0.475-0.004c0.081,0.088,8.217,8.924,17.277,20.646c8.374,10.833,19.274,26.421,23.654,39.163
						c0.075,0.217-0.003,0.447-0.175,0.513C218.225,327.178,218.216,327.181,218.207,327.184z"/>
				</g>
			</g>
			<g>
				<g>
					<path style="fill:#FFFFFF;" d="M193.601,314.715v40.024c0,8.997,8.931,16.358,19.846,16.358h14.523
						c10.915,0,19.846-7.361,19.846-16.358v-40.024H193.601z"/>
				</g>
				<g>
					<rect x="193.601" y="307.32" style="fill:#7D2345;" width="54.216" height="10.249"/>
					<path style="fill:#7D2345;" d="M194.603,359.828c2.613,6.523,10.083,11.269,18.843,11.269h14.523
						c8.76,0,16.23-4.746,18.843-11.269H194.603z"/>
				</g>
				<g style="opacity:0.3;">
					<path style="fill:#7D2345;" d="M234.709,307.32c2.05,13.663,3.01,26.972,0.757,40.799c-1.282,7.861-3.507,15.45-6.269,22.927
						c10.347-0.529,18.62-7.651,18.62-16.307V307.32H234.709z"/>
				</g>
			</g>
		</g>
		<g style="clip-path:url(#SVGID_00000027598115464810929700000003319779037677670581_);">
			<path style="fill:#FF96AB;" d="M17.869,459.148c-0.001-0.203-0.015-0.404-0.015-0.607c0-21.719,6.893-41.812,18.584-58.259
				l23.742,12.979c0,0-12.629-13.378-18.639-19.565c15.849-18.802,38.439-31.737,64.06-35.041l6.327,16.333l-1.064-16.871
				c2.557-0.194,5.131-0.325,7.738-0.325c16.11,0,31.33,3.79,44.834,10.514l-3.713,13.87l7.773-11.733
				c12.414,6.906,23.219,16.353,31.704,27.647l-17.376,17.687l22.887-9.561c9.287,15.251,14.639,33.163,14.639,52.325
				c0,0.204-0.014,0.404-0.015,0.607H17.869z"/>
			<path style="fill:#FF879E;" d="M22.957,426.884l88.298,28.605l-82.572-42.374c0.42-0.829,0.829-1.665,1.271-2.481l87.211,46.418
				l-43.31-88.778c1.473-0.732,2.966-1.428,4.479-2.089l39.629,89.34v-97.717c0.214-0.001,0.425-0.016,0.639-0.016
				c0.214,0,0.425,0.015,0.639,0.016v96.052l25.75-92.553c1.055,0.286,2.108,0.575,3.149,0.894l-27.811,92.804l56.061-78.97
				c0.349,0.245,0.695,0.491,1.041,0.74l-49.339,69.5l54.901-65.214c0.327,0.273,0.642,0.56,0.966,0.837l-63.297,75.187
				l92.048-34.523c0.479,1.253,0.929,2.519,1.359,3.795l-95.25,32.784l-0.216-0.601l0,0l-0.197,0.607l-95.857-31.054
				C22.677,427.687,22.823,427.289,22.957,426.884z"/>
			<circle style="fill:#FF879E;" cx="118.602" cy="458.541" r="18.353"/>
		</g>
		<g style="clip-path:url(#SVGID_00000027598115464810929700000003319779037677670581_);">
			<path style="fill:#FF879E;" d="M485.715,266.415c-5.096,3.601-11.876,4.598-18.063,2.031l0,0
				c-6.197-2.558-10.287-8.049-11.35-14.199l0,0c-6.084,1.373-12.713-0.301-17.443-5.031l0,0c-4.739-4.73-6.432-11.349-5.068-17.433
				l0,0c-6.15-1.053-11.641-5.144-14.208-11.321l0,0c-2.577-6.196-1.599-12.976,2.003-18.072l0,0
				c-5.274-3.329-8.773-9.206-8.782-15.892l0,0c-0.009-6.695,3.479-12.572,8.745-15.91l0,0c-3.611-5.096-4.607-11.876-2.04-18.072
				l0,0c2.558-6.197,8.039-10.287,14.189-11.35l0,0c-1.382-6.083,0.292-12.713,5.022-17.452l0,0
				c4.72-4.739,11.349-6.431,17.433-5.077l0,0c1.043-6.15,5.134-11.641,11.311-14.218l0,0c6.187-2.576,12.967-1.598,18.073,1.994
				l0,0c3.328-5.266,9.195-8.773,15.891-8.782l0,0l0,0l0,0c6.695-0.019,12.572,3.47,15.91,8.726l0,0
				c5.096-3.611,11.876-4.607,18.072-2.05l0,0c6.187,2.557,10.297,8.04,11.359,14.18l0,0c6.074-1.373,12.713,0.291,17.453,5.021l0,0
				c4.739,4.72,6.441,11.349,5.087,17.433l0,0c6.15,1.034,11.641,5.115,14.227,11.302l0,0c2.577,6.187,1.608,12.967-1.984,18.072
				l0,0c5.266,3.32,8.782,9.187,8.792,15.882l0,0c0,0.047,0,0.094,0,0.132l0,0c0,0.028,0,0.047,0,0.066l0,0l0,0l0,0
				c0,6.695-3.499,12.572-8.764,15.901l0,0c3.611,5.096,4.598,11.876,2.031,18.072l0,0l0,0l0,0
				c-2.568,6.187-8.059,10.278-14.208,11.34l0,0c1.373,6.074-0.31,12.704-5.04,17.443l0,0c-4.739,4.729-11.358,6.413-17.443,5.049
				l0,0c-1.053,6.15-5.143,11.641-11.331,14.208l0,0c-6.187,2.576-12.967,1.589-18.073-2.012l0,0
				c-3.329,5.266-9.196,8.764-15.892,8.773l0,0C494.929,275.169,489.052,271.681,485.715,266.415z M412.803,186.498L412.803,186.498
				L412.803,186.498L412.803,186.498L412.803,186.498L412.803,186.498z"/>
		</g>
		<g style="clip-path:url(#SVGID_00000027598115464810929700000003319779037677670581_);">
			<g>
				<path style="fill:none;stroke:#232147;stroke-width:2;stroke-miterlimit:10;" d="M659.057,229.982
					c0,0-5.691,76.636,22.622,128.591"/>
				<path style="fill:#FF4267;" d="M636.624,206.463l6.819,15.143l-3.859-15.046l5.994,0.197l6.704,19.908l-2.97-19.785l5.155,0.169
					l1.766,6.379l-0.503-6.338l4.485,0.147l3,16.41l0.534-16.294l10.298,0.338l-2.399,16.232l5.587-16.128l4.593,0.151l-0.522,4.616
					l1.921-4.57l6.382,0.209c-0.54,16.462-14.322,29.369-30.784,28.829c-16.462-0.54-29.369-14.322-28.829-30.784L636.624,206.463z"
					/>
				<path style="fill:#8C7F1F;" d="M647.615,254.167c5.392,6.249,8.525,13.057,8.711,17.99c-4.852-0.907-11.127-5.004-16.519-11.253
					c-5.392-6.249-8.525-13.057-8.711-17.99C635.948,243.821,642.223,247.918,647.615,254.167z"/>
				<path style="fill:#8C7F1F;" d="M670.362,270.065c4.316-7.035,9.85-12.088,14.493-13.764c0.61,4.899-1.387,12.122-5.703,19.157
					c-4.316,7.035-9.85,12.088-14.493,13.764C664.049,284.323,666.046,277.1,670.362,270.065z"/>
			</g>
			<g>
				<g>
					
						<ellipse transform="matrix(0.7071 -0.7071 0.7071 0.7071 -16.4067 615.0604)" style="fill:#8C7F1F;" cx="734.24" cy="327.335" rx="69.187" ry="69.187"/>
					
						<ellipse transform="matrix(0.7071 -0.7071 0.7071 0.7071 -48.4147 573.4139)" style="fill:#8C7F1F;" cx="667.965" cy="345.149" rx="51.602" ry="51.602"/>
					
						<ellipse transform="matrix(0.3757 -0.9268 0.9268 0.3757 46.6254 799.0403)" style="fill:#8C7F1F;" cx="616.363" cy="364.915" rx="30.446" ry="30.446"/>
					
						<ellipse transform="matrix(0.9873 -0.1587 0.1587 0.9873 -61.2204 91.2836)" style="fill:#8C7F1F;" cx="541.023" cy="429.014" rx="30.446" ry="30.446"/>
					<circle style="fill:#8C7F1F;" cx="591.619" cy="417.647" r="52.732"/>
				</g>
				<polygon style="fill:#8C7F1F;" points="541.023,459.461 803.428,459.461 803.428,327.335 734.24,327.335 588.271,385.643 				
					"/>
			</g>
			<g>
				<path style="fill:none;stroke:#FFB2C1;stroke-width:2;stroke-miterlimit:10;" d="M712.481,307.33
					c0,0,9.39,76.271,47.307,121.694"/>
				<path style="fill:#FFB2C1;" d="M685.885,288.647l9.646,13.519l-6.724-14.002l5.916-0.978l10.465,18.214l-6.778-18.824
					l5.089-0.841l2.979,5.911l-1.732-6.117l4.428-0.732l6.147,15.507l-2.659-16.084l10.165-1.681l0.818,16.388l2.329-16.909
					l4.534-0.75l0.39,4.629l0.991-4.857l6.3-1.042c2.687,16.25-8.308,31.601-24.558,34.288c-16.25,2.687-31.601-8.308-34.288-24.558
					L685.885,288.647z"/>
				<path style="fill:#FFB2C1;" d="M705.984,333.284c6.509,5.075,10.911,11.14,12.058,15.941
					c-4.936,0.058-11.891-2.734-18.399-7.809c-6.509-5.075-10.911-11.14-12.058-15.941
					C692.521,325.417,699.475,328.209,705.984,333.284z"/>
				<path style="fill:#FFB2C1;" d="M731.398,344.432c2.858-7.743,7.299-13.78,11.525-16.331c1.555,4.685,1.008,12.159-1.851,19.902
					c-2.858,7.743-7.298,13.78-11.525,16.331C727.992,359.648,728.54,352.174,731.398,344.432z"/>
			</g>
			<g>
				<path style="fill:#515C14;" d="M790.77,456.753c0.001-0.203,0.015-0.403,0.015-0.607c0-21.705-6.889-41.786-18.573-58.221
					l-23.727,12.97c0,0,12.621-13.369,18.627-19.552c-15.839-18.789-38.415-31.717-64.019-35.018l-6.323,16.323l1.063-16.86
					c-2.555-0.194-5.128-0.325-7.733-0.325c-16.099,0-31.31,3.788-44.805,10.507l3.71,13.861l-7.768-11.726
					c-12.406,6.901-23.205,16.343-31.684,27.629l17.365,17.676l-22.873-9.555c-9.281,15.242-14.63,33.142-14.63,52.291
					c0,0.204,0.014,0.404,0.015,0.607H790.77z"/>
				<path style="fill:#232147;" d="M785.684,424.509l-88.242,28.587l82.52-42.347c-0.419-0.829-0.828-1.664-1.27-2.479
					l-87.156,46.388l43.283-88.721c-1.472-0.731-2.964-1.428-4.477-2.088l-39.604,89.283v-97.655
					c-0.214-0.001-0.424-0.016-0.638-0.016c-0.214,0-0.425,0.015-0.639,0.016v95.991l-25.733-92.494
					c-1.054,0.285-2.107,0.575-3.147,0.893l27.794,92.745l-56.026-78.92c-0.348,0.245-0.695,0.491-1.04,0.74l49.307,69.456
					l-54.866-65.172c-0.327,0.272-0.641,0.56-0.965,0.836l63.256,75.139l-91.99-34.501c-0.479,1.252-0.928,2.517-1.358,3.793
					l95.19,32.763l0.216-0.601l0,0l0.197,0.607l95.796-31.034C785.965,425.312,785.818,424.913,785.684,424.509z"/>
				<circle style="fill:#232147;" cx="690.101" cy="456.146" r="18.342"/>
			</g>
		</g>
		<g style="clip-path:url(#SVGID_00000027598115464810929700000003319779037677670581_);">
			<rect y="453.788" style="fill:#FF879E;" width="750" height="46.212"/>
			<g>
				<g>
					
						<line style="fill:none;stroke:#FFB2C1;stroke-width:0.75;stroke-miterlimit:10;" x1="22.126" y1="453.788" x2="22.126" y2="500"/>
					
						<line style="fill:none;stroke:#FFB2C1;stroke-width:0.75;stroke-miterlimit:10;" x1="43.512" y1="453.788" x2="43.512" y2="500"/>
					
						<line style="fill:none;stroke:#FFB2C1;stroke-width:0.75;stroke-miterlimit:10;" x1="64.898" y1="453.788" x2="64.898" y2="500"/>
					
						<line style="fill:none;stroke:#FFB2C1;stroke-width:0.75;stroke-miterlimit:10;" x1="86.285" y1="453.788" x2="86.285" y2="500"/>
					
						<line style="fill:none;stroke:#FFB2C1;stroke-width:0.75;stroke-miterlimit:10;" x1="107.671" y1="453.788" x2="107.671" y2="500"/>
					
						<line style="fill:none;stroke:#FFB2C1;stroke-width:0.75;stroke-miterlimit:10;" x1="129.057" y1="453.788" x2="129.057" y2="500"/>
					
						<line style="fill:none;stroke:#FFB2C1;stroke-width:0.75;stroke-miterlimit:10;" x1="150.444" y1="453.788" x2="150.444" y2="500"/>
					
						<line style="fill:none;stroke:#FFB2C1;stroke-width:0.75;stroke-miterlimit:10;" x1="171.83" y1="453.788" x2="171.83" y2="500"/>
					
						<line style="fill:none;stroke:#FFB2C1;stroke-width:0.75;stroke-miterlimit:10;" x1="193.216" y1="453.788" x2="193.216" y2="500"/>
					
						<line style="fill:none;stroke:#FFB2C1;stroke-width:0.75;stroke-miterlimit:10;" x1="214.603" y1="453.788" x2="214.603" y2="500"/>
					
						<line style="fill:none;stroke:#FFB2C1;stroke-width:0.75;stroke-miterlimit:10;" x1="235.989" y1="453.788" x2="235.989" y2="500"/>
					
						<line style="fill:none;stroke:#FFB2C1;stroke-width:0.75;stroke-miterlimit:10;" x1="257.375" y1="453.788" x2="257.375" y2="500"/>
					
						<line style="fill:none;stroke:#FFB2C1;stroke-width:0.75;stroke-miterlimit:10;" x1="278.762" y1="453.788" x2="278.762" y2="500"/>
					
						<line style="fill:none;stroke:#FFB2C1;stroke-width:0.75;stroke-miterlimit:10;" x1="300.148" y1="453.788" x2="300.148" y2="500"/>
					
						<line style="fill:none;stroke:#FFB2C1;stroke-width:0.75;stroke-miterlimit:10;" x1="321.534" y1="453.788" x2="321.534" y2="500"/>
					
						<line style="fill:none;stroke:#FFB2C1;stroke-width:0.75;stroke-miterlimit:10;" x1="342.921" y1="453.788" x2="342.921" y2="500"/>
					
						<line style="fill:none;stroke:#FFB2C1;stroke-width:0.75;stroke-miterlimit:10;" x1="364.307" y1="453.788" x2="364.307" y2="500"/>
					
						<line style="fill:none;stroke:#FFB2C1;stroke-width:0.75;stroke-miterlimit:10;" x1="385.693" y1="453.788" x2="385.693" y2="500"/>
					
						<line style="fill:none;stroke:#FFB2C1;stroke-width:0.75;stroke-miterlimit:10;" x1="407.079" y1="453.788" x2="407.079" y2="500"/>
					
						<line style="fill:none;stroke:#FFB2C1;stroke-width:0.75;stroke-miterlimit:10;" x1="428.466" y1="453.788" x2="428.466" y2="500"/>
					
						<line style="fill:none;stroke:#FFB2C1;stroke-width:0.75;stroke-miterlimit:10;" x1="449.852" y1="453.788" x2="449.852" y2="500"/>
					
						<line style="fill:none;stroke:#FFB2C1;stroke-width:0.75;stroke-miterlimit:10;" x1="471.238" y1="453.788" x2="471.238" y2="500"/>
					
						<line style="fill:none;stroke:#FFB2C1;stroke-width:0.75;stroke-miterlimit:10;" x1="492.625" y1="453.788" x2="492.625" y2="500"/>
					
						<line style="fill:none;stroke:#FFB2C1;stroke-width:0.75;stroke-miterlimit:10;" x1="514.011" y1="453.788" x2="514.011" y2="500"/>
					
						<line style="fill:none;stroke:#FFB2C1;stroke-width:0.75;stroke-miterlimit:10;" x1="535.397" y1="453.788" x2="535.397" y2="500"/>
					
						<line style="fill:none;stroke:#FFB2C1;stroke-width:0.75;stroke-miterlimit:10;" x1="556.784" y1="453.788" x2="556.784" y2="500"/>
					
						<line style="fill:none;stroke:#FFB2C1;stroke-width:0.75;stroke-miterlimit:10;" x1="578.17" y1="453.788" x2="578.17" y2="500"/>
					
						<line style="fill:none;stroke:#FFB2C1;stroke-width:0.75;stroke-miterlimit:10;" x1="599.556" y1="453.788" x2="599.556" y2="500"/>
					
						<line style="fill:none;stroke:#FFB2C1;stroke-width:0.75;stroke-miterlimit:10;" x1="620.943" y1="453.788" x2="620.943" y2="500"/>
					
						<line style="fill:none;stroke:#FFB2C1;stroke-width:0.75;stroke-miterlimit:10;" x1="642.329" y1="453.788" x2="642.329" y2="500"/>
					
						<line style="fill:none;stroke:#FFB2C1;stroke-width:0.75;stroke-miterlimit:10;" x1="663.715" y1="453.788" x2="663.715" y2="500"/>
					
						<line style="fill:none;stroke:#FFB2C1;stroke-width:0.75;stroke-miterlimit:10;" x1="685.102" y1="453.788" x2="685.102" y2="500"/>
					
						<line style="fill:none;stroke:#FFB2C1;stroke-width:0.75;stroke-miterlimit:10;" x1="706.488" y1="453.788" x2="706.488" y2="500"/>
					
						<line style="fill:none;stroke:#FFB2C1;stroke-width:0.75;stroke-miterlimit:10;" x1="727.874" y1="453.788" x2="727.874" y2="500"/>
				</g>
				<g>
					<line style="fill:none;stroke:#FFB2C1;stroke-width:0.75;stroke-miterlimit:10;" x1="0" y1="460.582" x2="750" y2="460.582"/>
					<line style="fill:none;stroke:#FFB2C1;stroke-width:0.75;stroke-miterlimit:10;" x1="0" y1="468.738" x2="750" y2="468.738"/>
					<line style="fill:none;stroke:#FFB2C1;stroke-width:0.75;stroke-miterlimit:10;" x1="0" y1="476.894" x2="750" y2="476.894"/>
					<line style="fill:none;stroke:#FFB2C1;stroke-width:0.75;stroke-miterlimit:10;" x1="0" y1="485.05" x2="750" y2="485.05"/>
					<line style="fill:none;stroke:#FFB2C1;stroke-width:0.75;stroke-miterlimit:10;" x1="0" y1="493.207" x2="750" y2="493.207"/>
				</g>
			</g>
		</g>
		<g style="clip-path:url(#SVGID_00000027598115464810929700000003319779037677670581_);">
			<path style="fill:#232147;" d="M467.047,153.937c21.483,0.948,30.334,12.297,32.887,35.984
				c2.553,23.687,56.34,20.453,35.574,64.027c-20.766,43.575-79.61,7.149-89.082-14.808c-9.472-21.957,6.169-28.621,18.263-44.523
				C476.785,178.715,467.047,153.937,467.047,153.937z"/>
			<path style="fill:#232147;" d="M440.992,184.008c-3.601-12.93,3.527-26.872,19.197-29.611
				c19.878-3.475,33.444,13.243,27.848,32.945l-15.946,22.797L440.992,184.008z"/>
			
				<line style="fill:none;stroke:#000000;stroke-width:0.9885;stroke-miterlimit:10;" x1="518.434" y1="365.134" x2="537.617" y2="350.677"/>
			<g>
				<g>
					<defs>
						<path id="XMLID_00000027568635827139329280000018353524114954810292_" d="M252.093,390.434l-44.784,40.234
							c-4.701,4.223-10.302,7.319-16.371,9.078c-17.533,5.082-33.404,10.342-44.133,16.155c-1.119,0.607-2.002,1.565-2.508,2.734
							l0,0c-1.612,3.726,1.119,7.883,5.179,7.883h76.118c3.813,0,6.916-3.044,7.005-6.856c0.078-3.349-0.057-7.644-0.801-12.234
							l46.707-30.026L252.093,390.434z"/>
					</defs>
					<use xlink:href="#XMLID_00000027568635827139329280000018353524114954810292_"  style="overflow:visible;fill:#FFFFFF;"/>
					<clipPath id="XMLID_00000085225758134054095580000012706192804243671692_">
						<use xlink:href="#XMLID_00000027568635827139329280000018353524114954810292_"  style="overflow:visible;"/>
					</clipPath>
					<path style="clip-path:url(#XMLID_00000085225758134054095580000012706192804243671692_);fill:#7D2345;" d="M256.563,437.719
						c-1.035-0.29-2.07-0.59-3.102-0.896c0.298-0.143,0.599-0.283,0.883-0.445c0.632-0.361,0.211-1.469-0.509-1.207
						c-0.776,0.283-1.524,0.689-2.258,1.079c-4.123-1.285-8.181-2.776-12.018-4.772c-2.747-1.429-5.336-3.103-7.753-5.04
						c-2.606-2.087-5.127-4.286-7.685-6.431c-1.234-1.034-2.468-2.071-3.71-3.098c0.049-0.03,0.095-0.066,0.145-0.094
						c0.322-0.182,0.673-0.281,1.002-0.444c0.592-0.293,0.291-1.217-0.328-1.213c-0.705,0.004-1.357,0.418-1.906,0.861
						c-1.326-1.08-2.665-2.143-4.037-3.161c-0.321-0.238-0.697,0.275-0.421,0.546c1.18,1.159,2.398,2.282,3.63,3.388
						c-0.395,0.405-0.772,0.829-1.128,1.263c-0.52,0.633-1.051,1.257-1.579,1.884c-0.465-0.462-0.949-0.906-1.403-1.378
						c-1.206-1.255-2.313-2.628-3.648-3.747c-0.53-0.445-1.404,0.115-1.006,0.776c0.81,1.348,1.91,2.484,2.988,3.621
						c0.649,0.685,1.331,1.337,2.002,2.001c-0.354,0.42-0.707,0.842-1.059,1.263c-0.301,0.361,0.183,0.87,0.525,0.525
						c0.385-0.389,0.769-0.779,1.154-1.169c0.243,0.236,0.472,0.485,0.718,0.718c2.238,2.12,4.588,4.117,7.03,5.997
						c4.934,3.799,10.262,7.105,15.911,9.731c1.81,0.841,3.668,1.678,5.563,2.391c-0.149,0.113-0.306,0.215-0.454,0.33
						c-0.364,0.284,0.103,0.862,0.488,0.632c0.332-0.199,0.666-0.393,0.999-0.59c1.039,0.361,2.088,0.682,3.149,0.934
						c0.476,0.113,0.836-0.604,0.349-0.828c-0.696-0.32-1.397-0.628-2.1-0.93c0.793-0.46,1.591-0.911,2.398-1.35
						c0.663-0.36,1.335-0.701,2.008-1.041c1.574,0.493,3.158,0.957,4.747,1.402C257.117,439.497,257.531,437.99,256.563,437.719z"/>
				</g>
				<path style="fill:#E06868;" d="M227.117,416.199c3.942,3.842,8.141,7.456,12.827,10.367c4.298,2.67,8.835,4.956,13.483,6.957
					l25.078-16.122l-26.412-26.968l-26.724,24.009C225.95,415.03,226.525,415.622,227.117,416.199z"/>
				<g>
					
						<path style="fill:none;stroke:#FFB2C1;stroke-width:1.977;stroke-linecap:round;stroke-linejoin:round;stroke-miterlimit:10;" d="
						M220.677,440.198c1.854,3.892-0.556,9.638-5.375,10.379"/>
				</g>
				<path style="fill:#C93A3A;" d="M252.093,390.434l-10.445,9.384c-1.99,1.788-1.946,4.891,0.054,6.667
					c5.03,4.468,8.577,10.434,10.542,17.996c1.077,4.141,5.897,6.011,9.497,3.697l16.764-10.777L252.093,390.434z"/>
			</g>
			<path style="fill:#232147;" d="M477.927,377.401l-72.131-66.368c-21.429-19.717-54.481-19.421-75.554,0.675l-89.176,85.044
				l41.517,35.291c0,0,15.569-10.009,21.5-20.017c20.017-7.414,30.026-24.272,30.026-24.272s17.635-7.608,27.431-18.728
				l54.491,71.172L477.927,377.401z"/>
			<path style="fill:#7D2345;" d="M465.868,382.555c-0.841,1.429-1.725,3.171-2.5,5.199c-19.55-4.309-38.055-5.706-55.701-4.705
				c-20.95,1.188-37.698,17.883-39.146,38.816v0c-1.67,24.146,17.467,44.652,41.67,44.652h136.815
				c14.714,0,27.899-9.475,32.187-23.55c1.537-5.047,2.536-11.005,2.536-17.967c0-30.211-25.948-52.267-25.948-52.267l-81.783,4.903
				C470.642,377.838,467.573,379.658,465.868,382.555z"/>
			<path style="fill:#7D2345;" d="M465.868,382.555c-0.841,1.429-1.725,3.171-2.5,5.199c-19.55-4.309-38.055-5.706-55.701-4.705
				c-20.95,1.188-37.698,17.883-39.146,38.816v0c-1.67,24.146,17.467,44.652,41.67,44.652h136.815
				c14.714,0,27.899-9.475,32.187-23.55c1.537-5.047,2.536-11.005,2.536-17.967c0-30.211-25.948-52.267-25.948-52.267l-81.783,4.903
				C470.642,377.838,467.573,379.658,465.868,382.555z"/>
			<g>
				
					<line style="fill:none;stroke:#232147;stroke-width:1.977;stroke-linecap:round;stroke-linejoin:round;stroke-miterlimit:10;" x1="461.794" y1="386.398" x2="547.904" y2="401.276"/>
				
					<line style="fill:none;stroke:#232147;stroke-width:1.977;stroke-linecap:round;stroke-linejoin:round;stroke-miterlimit:10;" x1="519.621" y1="396.752" x2="546.143" y2="391.082"/>
			</g>
			<path style="fill:#E06868;" d="M440.698,304.248l-22.135,50.431c-3.116,7.098-10.134,11.683-17.886,11.683H295.186v-15.685
				l89.961-15.306c1.777-0.302,3.311-1.416,4.148-3.012l36.837-70.209c6.11-11.645,15.865-20.996,27.818-26.48
				c2.889-1.325,5.866-2.564,8.915-3.733L440.698,304.248z"/>
			<path style="fill:#FFFFFF;" d="M407.695,303.595c3.835,1.911,7.432,4.293,10.875,6.836c3.335,2.463,6.607,5.021,9.758,7.716
				c1.53,1.308,3.031,2.656,4.495,4.044l7.875-17.943l22.167-72.311c-3.049,1.169-6.026,2.408-8.915,3.733
				c-11.953,5.484-21.708,14.835-27.818,26.48l-21.106,40.227C405.928,302.756,406.82,303.159,407.695,303.595z"/>
			<path style="fill:#C93A3A;" d="M361.941,339.319l-66.755,11.358v15.685h105.491c7.752,0,14.771-4.584,17.886-11.683l5.025-11.448
				c1.462-3.331-1.951-6.76-5.261-5.25c-9.667,4.412-22.314,6.612-32.545,3.312C378.072,338.807,369.928,337.961,361.941,339.319z"
				/>
			<path style="fill:#FFFFFF;" d="M506.757,230.574l27.804,11.95l17.331,66.152c-0.834,13.623-1.764,41.445-1.764,41.445
				s13.635,10.582,10.957,21.996c-0.808,3.447-4.004,5.805-7.544,5.805h-80.693c-2.135,0-4.003-1.438-4.548-3.503l-11.37-43.076
				c-1.227-4.648-4.519-8.396-8.838-10.508c-17.349-8.485-19.294-32.171-5.001-54.953l6.947-24.749
				c0.775-2.762,2.708-5.065,5.311-6.271c2.405-1.113,4.92-2.068,7.516-2.926L506.757,230.574z"/>
			<path style="fill:#FFB2C1;" d="M475.216,316.262c8.824-2.589,19.132-7.064,28.207-14.798l-5.915,33.64
				c0,0-10.84-1.571-22.554-5.356C468.342,327.612,468.549,318.218,475.216,316.262z"/>
			<path style="fill:#FFB2C1;" d="M519.154,368.998c12.021-2.234,21.086-12.195,22.055-24.384l2.347-29.506l-15.531-9.263
				l-64.736,49.59l5.011,18.984c0.545,2.065,2.412,3.503,4.548,3.503h17.154C498.512,373.968,508.264,371.022,519.154,368.998z"/>
			<g>
				<path style="fill:#E06868;" d="M517.325,297.737c-2.522-3.379-4.848-6.904-7.484-10.198c-1.29-1.612-2.64-3.215-4.163-4.613
					c-1.472-1.351-3.087-2.534-4.576-3.866c-5.677,15.11-10.565,32.429-15.298,47.174c-0.962,2.998-3.366,5.308-6.395,6.17
					l-81.173,23.092l-5.079-0.827c-8.439-1.374-17.105,0.262-24.437,4.661c-4.706,2.824-8.933,6.074-12.742,9.696h132.932
					c12.985,0,24.686-7.837,29.628-19.845l13.856-33.665C527.703,309.306,521.979,303.972,517.325,297.737z"/>
				<g>
					
						<line style="fill:none;stroke:#C93A3A;stroke-width:1.977;stroke-linecap:round;stroke-linejoin:round;stroke-miterlimit:10;" x1="371.919" y1="361.149" x2="363.486" y2="368.099"/>
					
						<line style="fill:none;stroke:#C93A3A;stroke-width:1.977;stroke-linecap:round;stroke-linejoin:round;stroke-miterlimit:10;" x1="377.315" y1="361.149" x2="368.882" y2="368.099"/>
					
						<line style="fill:none;stroke:#C93A3A;stroke-width:1.977;stroke-linecap:round;stroke-linejoin:round;stroke-miterlimit:10;" x1="382.711" y1="361.149" x2="374.278" y2="368.099"/>
					
						<path style="fill:none;stroke:#C93A3A;stroke-width:1.977;stroke-linecap:round;stroke-linejoin:round;stroke-miterlimit:10;" d="
						M379.674,368.099l4.217-3.475c0,0,6.562,3.846,15.737,0.788"/>
				</g>
				<path style="fill:#FFFFFF;" d="M530.621,241.694c-20.665,0.006-32.662,45.906-43.555,80.567
					c2.876,0.256,5.735,0.696,8.551,1.377c5.451,1.318,10.736,3.451,15.474,6.465c4.103,2.611,7.759,5.87,10.928,9.554
					c0.101,0.118,0.192,0.243,0.292,0.361l11.785-28.634c0,0,9.267,8.711,17.7-0.463
					C556.244,259.765,540.953,241.691,530.621,241.694z"/>
			</g>
			<path style="fill:#FFB2C1;" d="M543.557,315.109l1.295-15.494c0.266-3.188-4.16-4.257-5.378-1.298l-5.378,13.068
				C534.095,311.384,538.266,315.296,543.557,315.109z"/>
			<path style="fill:#E06868;" d="M483.687,199.63l9.481,20.296c1.332,2.852,3.545,5.202,6.313,6.702l7.276,3.945
				c-9.592,21.268-22.334,40.452-40.034,37.093c-21.442-4.069-3.857-35.73-3.857-35.73l4.691-2.058l-5.143-14.735L483.687,199.63z"
				/>
			<path style="fill:#C93A3A;" d="M462.413,215.144l5.823,16.682c1.084,3.105,5.026,4.163,7.431,1.92
				c7.354-6.862,9.734-16.969,6.237-28.68L462.413,215.144z"/>
			
				<line style="fill:none;stroke:#C93A3A;stroke-width:1.977;stroke-linecap:round;stroke-linejoin:round;stroke-miterlimit:10;" x1="475.512" y1="249.943" x2="488.037" y2="241.694"/>
			<path style="fill:#E06868;" d="M451.617,166.63c12.515-2.572,11.075,9.605,19.59,14.087c1.444,0.76,2.526,2.059,2.873,3.653
				l1.138,5.237c0.341,1.57,2.431,1.906,3.247,0.521l3.492-5.928c1.663-2.824,5.523-3.362,7.896-1.102l0,0
				c1.811,1.724,2.101,4.509,0.684,6.569l-7.226,10.51c-2.039,12.047-13.637,21.307-25.499,18.341
				c-11.862-2.965-11.014-16.858-11.014-16.858s-3.624-9.536-5.478-16.209C439.467,178.779,441.434,168.722,451.617,166.63z"/>
			<path style="fill:#DE4E4E;" d="M473.938,198.188c0,2.881-2.336,5.217-5.217,5.217s-5.217-2.336-5.217-5.217
				c0-2.881,2.336-5.217,5.217-5.217S473.938,195.307,473.938,198.188z"/>
			<circle style="fill:#232147;" cx="448.883" cy="192.377" r="2.456"/>
			<path style="fill:#232147;" d="M465.425,188.855c0,1.356-1.099,2.456-2.456,2.456s-2.456-1.1-2.456-2.456
				c0-1.356,1.1-2.456,2.456-2.456S465.425,187.499,465.425,188.855z"/>
			
				<path style="fill:none;stroke:#C93A3A;stroke-width:1.977;stroke-linecap:round;stroke-linejoin:round;stroke-miterlimit:10;" d="
				M454.49,189.219c0,0,1.927,2.224,1.589,4.24c-0.338,2.016-2.423,6.719-0.477,7.182c1.946,0.463,4.587-1.483,4.587-1.483"/>
			
				<path style="fill:none;stroke:#C93A3A;stroke-width:1.977;stroke-linecap:round;stroke-linejoin:round;stroke-miterlimit:10;" d="
				M456.079,204.579c2.581,0.834,7.864-0.089,10.783-3.867"/>
			<g>
				<path style="fill:none;stroke:#232147;stroke-width:1.977;stroke-miterlimit:10;" d="M458.061,184.057
					c2.794-2.55,6.367-2.059,8.986-0.697"/>
				<path style="fill:none;stroke:#232147;stroke-width:1.977;stroke-miterlimit:10;" d="M450.319,185.969
					c-1.634-0.371-5.229-0.364-6.364,1.689"/>
			</g>
			
				<path style="fill:none;stroke:#C93A3A;stroke-width:1.977;stroke-linecap:round;stroke-linejoin:round;stroke-miterlimit:10;" d="
				M480.809,194.617c0,0,3.835-10.652,7.229-9.267"/>
			<path style="fill:#FFFFFF;" d="M485.813,200.641c0,1.587-1.286,2.873-2.873,2.873c-1.587,0-2.873-1.286-2.873-2.873
				c0-1.587,1.286-2.873,2.873-2.873C484.527,197.768,485.813,199.054,485.813,200.641z"/>
			
				<path style="fill:none;stroke:#FFB2C1;stroke-width:1.977;stroke-linecap:round;stroke-linejoin:round;stroke-miterlimit:10;" d="
				M445.541,257.156c-1.377,4.905-1.411,7.017-2.449,8.726c-1.039,1.71-10.774,17.428-9.476,31.088
				c1.298,13.66,6.89,20.284,14.477,23.866"/>
			
				<path style="fill:none;stroke:#FFB2C1;stroke-width:1.977;stroke-linecap:round;stroke-linejoin:round;stroke-miterlimit:10;" d="
				M505.639,267.225c-5.875,12.255-17.062,50.215-18.574,55.036"/>
			<path style="fill:#232147;" d="M470.954,168.341c-5.91-4.649-13.349-7.291-20.878-7.312c-0.944-0.003-1.885,0.042-2.825,0.132
				c-0.135,0.013-0.247,0.059-0.345,0.119c-1.813-0.368-3.693-0.489-5.53-0.428c-1.794,0.06-3.812,0.223-5.109,1.628
				c-1.287,1.394-1.677,3.455-2.054,5.25c-0.436,2.08-0.705,4.201-0.802,6.324c-0.1,2.184-0.015,4.377,0.257,6.547
				c0.13,1.035,0.28,2.076,0.511,3.094c0.195,0.859,0.52,1.751,1.18,2.365c0.617,0.575,1.47,0.915,2.314,0.731
				c0.861-0.188,1.541-0.904,2.235-1.404c1.471-1.061,3.023-2.024,4.627-2.87c6.599-3.483,14.177-4.876,21.597-4.62
				c1.87,0.064,3.739,0.228,5.59,0.505c0.919,0.138,1.833,0.362,2.755,0.472c0.911,0.109,1.647-0.313,1.883-1.223
				C477.356,173.805,473.63,170.445,470.954,168.341z"/>
		</g>
		<g style="clip-path:url(#SVGID_00000027598115464810929700000003319779037677670581_);">
			<g>
				<g>
					<path style="fill:#FFFFFF;" d="M665.464,449.87c-1.284,0-2.577-0.415-3.664-1.27c-2.574-2.026-3.019-5.754-0.992-8.329
						c6.48-8.234,7.918-19.221,3.66-27.99c-3.735-7.694-10.983-11.931-20.406-11.931c-3.275,0-5.931-2.656-5.931-5.931
						c0-3.275,2.656-5.931,5.931-5.931c14.007,0,25.334,6.783,31.077,18.612c6.228,12.827,4.262,28.728-5.009,40.508
						C668.959,449.094,667.22,449.87,665.464,449.87z"/>
				</g>
				<path style="fill:#C2784A;" d="M666.835,424.721l-0.002,0.001c-0.352,5.464-2.397,10.938-6.025,15.549
					c-2.026,2.574-1.581,6.303,0.992,8.329c1.087,0.855,2.38,1.27,3.664,1.27c1.756,0,3.495-0.776,4.665-2.263
					c1.814-2.305,3.338-4.771,4.586-7.337C679.435,426.997,668.246,416.811,666.835,424.721z"/>
			</g>
			<path style="fill:#FFFFFF;" d="M568.599,423.632c0,0,9.001-2.992,20.346-2.728c1.28,0.03,2.524-0.381,3.574-1.113
				c22.578-15.747,51.598-15.763,68.964,2.469c13.788,14.475,11.327,33.093,9.52,40.74c-0.526,2.225-0.204,4.566,0.859,6.589
				l0.047,0.09c1.945,3.701-0.739,8.144-4.92,8.144h-147.48c-9.082,0-9.273-18.64,3.859-23.168L568.599,423.632z"/>
			<path style="fill:#C2784A;" d="M589.876,461.867c-0.158-0.054-2.417-0.828-5.898-1.246c-1.383-0.166-2.115-1.735-1.333-2.887
				c9.856-14.521,5.085-29.372-5.67-35.997c-5.094,0.806-8.376,1.895-8.376,1.895l-45.232,31.023
				c-13.131,4.528-12.94,23.168-3.858,23.168h35.428c1.248,0,2.387-0.796,2.736-1.994c3.517-12.054,17.445-13.331,20.658-13.465
				c6.209-0.22,10.841,1.351,10.894,1.37c0.098,0.035,0.198,0.052,0.298,0.055c0.419,0.012,0.815-0.246,0.96-0.663
				C590.663,462.61,590.392,462.047,589.876,461.867z"/>
			<path style="fill:#C2784A;" d="M604.523,475.699c-0.489,0.738-1.031,1.44-1.594,2.125h2.646c0.229-0.342,0.469-0.677,0.682-1.03
				c1.548-2.552,2.661-5.393,3.135-8.35c0.481-2.953,0.311-6.004-0.491-8.862c-0.795-2.863-2.207-5.521-4.026-7.82
				c-0.164-0.206-0.464-0.25-0.679-0.094c-0.221,0.161-0.27,0.47-0.109,0.691c1.655,2.278,2.881,4.854,3.514,7.561
				c0.639,2.704,0.674,5.526,0.121,8.223C607.174,470.842,606.047,473.405,604.523,475.699z"/>
			<path style="fill:#C2784A;" d="M614.021,477.824c0.439-1.473,1.188-2.871,2.185-4.119c1.564-1.977,3.654-3.598,5.918-4.931
				c2.273-1.334,4.734-2.396,7.266-3.264c2.535-0.865,5.148-1.536,7.797-2.025c0.256-0.048,0.435-0.288,0.401-0.549
				c-0.034-0.271-0.282-0.462-0.553-0.428c-2.718,0.347-5.418,0.879-8.072,1.622c-0.118,0.033-0.236,0.067-0.354,0.101
				c-1.169,0.34-2.392-0.257-2.86-1.381c-0.733-1.76-1.181-3.677-1.359-5.605c-0.189-2.01-0.109-4.061,0.25-6.061
				c0.363-1.996,1.001-3.962,2.04-5.688l0.008-0.013c0.134-0.223,0.071-0.515-0.147-0.663c-0.226-0.153-0.533-0.094-0.686,0.132
				c-1.228,1.811-2.013,3.862-2.515,5.96c-0.496,2.103-0.7,4.274-0.614,6.445c0.07,1.771,0.343,3.57,0.863,5.298
				c0.493,1.638-0.215,3.391-1.753,4.139c-0.21,0.102-0.42,0.207-0.629,0.314c-2.48,1.283-4.866,2.9-6.809,5.084
				c-1.418,1.575-2.542,3.519-3.156,5.631H614.021z"/>
			<g>
				<g>
					<path style="fill:#C2784A;" d="M563.436,476.658c-0.107,0-0.215-0.017-0.322-0.054c-0.516-0.178-0.79-0.74-0.612-1.257
						c1.473-4.272,3.792-6.029,3.89-6.101c0.436-0.326,1.056-0.235,1.382,0.205c0.324,0.436,0.235,1.053-0.2,1.379
						c-0.035,0.026-1.951,1.529-3.204,5.162C564.229,476.401,563.846,476.658,563.436,476.658z"/>
				</g>
				<g>
					<path style="fill:#C2784A;" d="M568.997,476.658c-0.107,0-0.215-0.017-0.322-0.054c-0.516-0.178-0.79-0.74-0.612-1.257
						c1.473-4.272,3.792-6.029,3.89-6.101c0.437-0.326,1.056-0.235,1.382,0.205c0.324,0.436,0.235,1.053-0.2,1.379
						c-0.035,0.026-1.951,1.529-3.204,5.162C569.791,476.401,569.407,476.658,568.997,476.658z"/>
				</g>
			</g>
			<g>
				<g>
					<path style="fill:#C2784A;" d="M619.864,476.658c-0.107,0-0.215-0.017-0.322-0.054c-0.516-0.178-0.79-0.74-0.612-1.257
						c1.473-4.272,3.792-6.029,3.89-6.101c0.436-0.326,1.056-0.235,1.382,0.205c0.324,0.436,0.235,1.053-0.2,1.379
						c-0.035,0.026-1.951,1.529-3.204,5.162C620.657,476.401,620.274,476.658,619.864,476.658z"/>
				</g>
				<g>
					<path style="fill:#C2784A;" d="M625.425,476.658c-0.107,0-0.215-0.017-0.323-0.054c-0.516-0.178-0.79-0.74-0.612-1.257
						c1.473-4.272,3.792-6.029,3.89-6.101c0.436-0.326,1.057-0.235,1.382,0.205c0.324,0.436,0.235,1.053-0.2,1.379
						c-0.035,0.026-1.951,1.529-3.204,5.162C626.219,476.401,625.836,476.658,625.425,476.658z"/>
				</g>
			</g>
			<g>
				<g>
					<g>
						<path style="fill:#FFFFFF;" d="M521.572,436.163c0,0-5.407-7.301-7.396-17.145c-0.316-1.563,0.955-2.977,2.543-2.831
							c7.066,0.646,11.683,3.026,14.148,4.368L521.572,436.163z"/>
						<path style="fill:#232147;" d="M527.789,423.664c0,0-3.427-1.938-7.28-2.934c-1.048-0.271-2.001,0.704-1.705,1.746
							c1.288,4.526,4.003,8.971,4.003,8.971L527.789,423.664z"/>
					</g>
					<g>
						<path style="fill:#FFFFFF;" d="M575.925,423.632c0,0,1.665-8.932-0.857-18.652c-0.4-1.543-2.162-2.258-3.526-1.432
							c-6.07,3.674-9.179,7.836-10.807,10.122L575.925,423.632z"/>
						<path style="fill:#232147;" d="M564.863,415.117c0,0,2.233-3.243,5.26-5.825c0.824-0.703,2.107-0.243,2.297,0.823
							c0.824,4.633,0.329,9.818,0.329,9.818L564.863,415.117z"/>
					</g>
				</g>
				<path style="fill:#FFFFFF;" d="M584.149,434.945c-3.771-16.358-21.384-26.264-39.338-22.124
					c-17.954,4.139-29.452,20.756-25.68,37.114c2.894,12.554,12.913,16.834,25.53,16.278c0.878-0.039,1.737,0.179,2.505,0.605
					c2.581,1.429,6.364,1.877,10.317,0.965c3.884-0.896,7.046-2.899,8.763-5.259c0.576-0.791,1.321-1.435,2.217-1.827
					C579.968,455.668,587.032,447.449,584.149,434.945z"/>
				<g>
					
						<path style="fill:none;stroke:#232147;stroke-width:1.6465;stroke-linecap:round;stroke-linejoin:round;stroke-miterlimit:10;" d="
						M531.206,437.64c4.657-3.223,11.512-1.951,15.564,3.249"/>
					
						<path style="fill:none;stroke:#232147;stroke-width:1.6465;stroke-linecap:round;stroke-linejoin:round;stroke-miterlimit:10;" d="
						M567.91,429.178c-5.598-0.859-11.204,3.286-12.57,9.736"/>
				</g>
				<path style="fill:#C2784A;" d="M539.908,414.316c0.103,0.53,0.216,1.066,0.34,1.606c1.927,8.356,5.732,14.613,8.5,13.975
					c2.768-0.638,3.45-7.93,1.523-16.286c-0.125-0.541-0.258-1.071-0.397-1.593c-1.677,0.147-3.369,0.412-5.063,0.802
					C543.117,413.212,541.48,413.714,539.908,414.316z"/>
				<g>
					<path style="fill:#C2784A;" d="M558.581,424.219c1.896-0.212,2.988-4.968,2.816-11.326c-2.694-0.662-5.512-1.011-8.396-1.01
						C554.154,419.111,556.497,424.452,558.581,424.219z"/>
					<path style="fill:#C2784A;" d="M537.422,429.097c1.975-0.703,1.744-6.531-0.384-13.534c-2.594,1.262-4.975,2.809-7.107,4.584
						C532.561,425.939,535.625,429.737,537.422,429.097z"/>
				</g>
				<path style="fill:#C93A3A;" d="M551.701,442.704c-1.355,0.312-3.511,0.446-3.303,1.349c0.408,1.77,3.077,2.619,4.16,2.369
					c1.084-0.25,3.111-2.182,2.703-3.952C555.053,441.568,553.055,442.392,551.701,442.704z"/>
				<path style="fill:#C93A3A;" d="M553.43,450.207c0,0-1.278,1.674-3.418,2.5c0.909,2.501,3.514,3.897,4.823,3.595
					s3.039-2.698,2.762-5.344C555.313,451.152,553.43,450.207,553.43,450.207z"/>
				<g>
					<path style="fill:#FFB2C1;" d="M542.561,447.439c0.609,2.642-1.039,5.278-3.681,5.887c-2.642,0.609-5.278-1.039-5.887-3.681
						c-0.609-2.642,1.039-5.278,3.681-5.887C539.316,443.149,541.951,444.797,542.561,447.439z"/>
					<path style="fill:#FFB2C1;" d="M571.559,440.753c0.609,2.642-1.039,5.278-3.681,5.887c-2.642,0.609-5.278-1.039-5.887-3.681
						c-0.609-2.642,1.039-5.278,3.681-5.887C568.315,436.463,570.95,438.111,571.559,440.753z"/>
				</g>
				<g>
					<g>
						
							<line style="fill:none;stroke:#232147;stroke-width:0.9885;stroke-linecap:round;stroke-linejoin:round;stroke-miterlimit:10;" x1="523.368" y1="453.153" x2="536.193" y2="447.618"/>
						
							<line style="fill:none;stroke:#232147;stroke-width:0.9885;stroke-linecap:round;stroke-linejoin:round;stroke-miterlimit:10;" x1="526.219" y1="458.097" x2="537.394" y2="449.434"/>
						
							<line style="fill:none;stroke:#232147;stroke-width:0.9885;stroke-linecap:round;stroke-linejoin:round;stroke-miterlimit:10;" x1="531.47" y1="461.689" x2="538.752" y2="450.785"/>
					</g>
					<g>
						
							<line style="fill:none;stroke:#232147;stroke-width:0.9885;stroke-linecap:round;stroke-linejoin:round;stroke-miterlimit:10;" x1="581.749" y1="439.693" x2="567.794" y2="440.333"/>
						
							<line style="fill:none;stroke:#232147;stroke-width:0.9885;stroke-linecap:round;stroke-linejoin:round;stroke-miterlimit:10;" x1="581.35" y1="445.387" x2="567.51" y2="442.491"/>
						
							<line style="fill:none;stroke:#232147;stroke-width:0.9885;stroke-linecap:round;stroke-linejoin:round;stroke-miterlimit:10;" x1="578.202" y1="450.915" x2="566.881" y2="444.3"/>
					</g>
				</g>
				<g>
					
						<path style="fill:none;stroke:#232147;stroke-width:1.6465;stroke-linecap:round;stroke-linejoin:round;stroke-miterlimit:10;" d="
						M544.876,448.83c-0.628,4.026,5.436,5.716,8.393,0.678"/>
					
						<path style="fill:none;stroke:#232147;stroke-width:1.6465;stroke-linecap:round;stroke-linejoin:round;stroke-miterlimit:10;" d="
						M560.518,445.223c2.327,3.344-2.385,7.52-7.249,4.285"/>
				</g>
			</g>
			<g>
				<path style="fill:#C2784A;" d="M643.469,430.839c4.732,1.699,8.828-8.57,9.608-15.461c-3.913-2.472-8.152-4.291-12.597-5.467
					C641.402,417.351,639.02,429.242,643.469,430.839z"/>
				<path style="fill:#C2784A;" d="M631.793,432.229c7.877-0.324,5.598-14.602,3.437-23.395c-6.138-0.915-12.547-0.694-18.928,0.615
					C621.118,418.268,622.913,432.594,631.793,432.229z"/>
				<path style="fill:#C2784A;" d="M615.141,435.203c7.791-2.361,1.984-16.635-4.625-24.273c-5.78,1.795-11.453,4.497-16.794,8.056
					C602.583,424.535,606.943,437.687,615.141,435.203z"/>
			</g>
			<path style="fill:#FFFFFF;" d="M518.892,467.553c1.408-4.657,9.569-2.464,12.907-0.711c3.337,1.753,3.546,5.507,0.696,6.271
				C529.645,473.878,517.29,472.851,518.892,467.553z"/>
		</g>
		<g style="clip-path:url(#SVGID_00000027598115464810929700000003319779037677670581_);">
			<rect x="174.603" y="370.324" style="fill:#FFFFFF;" width="277.982" height="8.896"/>
			<rect x="174.603" y="370.324" style="fill:#8E8BC4;" width="277.982" height="2.409"/>
			<g>
				<g>
					<polygon style="fill:#FFFFFF;" points="454.691,467.927 445.744,467.927 424.127,379.22 433.074,379.22 					"/>
					<polygon style="fill:#8E8BC4;" points="454.691,467.927 452.036,467.927 430.419,379.22 433.074,379.22 					"/>
					<polygon style="fill:#FFFFFF;" points="441.577,425.371 361.579,425.371 361.579,418.421 439.831,418.421 					"/>
					<polygon style="fill:#FFFFFF;" points="378.469,467.927 369.522,467.927 347.906,379.22 356.853,379.22 					"/>
					<polygon style="fill:#8E8BC4;" points="378.469,467.927 375.814,467.927 354.197,379.22 356.853,379.22 					"/>
					<path style="fill:#8E8BC4;" d="M347.906,379.22h8.947l0.348,1.429l-4.001,1.927c-2.063,0.993-4.517-0.166-5.059-2.391
						L347.906,379.22z"/>
					<path style="fill:#8E8BC4;" d="M424.127,379.22h8.947l0.348,1.429l-4.001,1.927c-2.063,0.993-4.517-0.166-5.059-2.391
						L424.127,379.22z"/>
					<path style="fill:#8E8BC4;" d="M438.099,430.059l3.566-4.688h-6.292l1.058,4.34
						C436.619,430.483,437.618,430.691,438.099,430.059z"/>
				</g>
				<g>
					<path style="fill:#8E8BC4;" d="M189.089,430.059l-3.566-4.688h6.292l-1.058,4.34
						C190.569,430.483,189.57,430.691,189.089,430.059z"/>
					<g>
						<polygon style="fill:#8E8BC4;" points="172.497,467.927 181.444,467.927 203.061,379.22 194.113,379.22 						"/>
						<polygon style="fill:#FFFFFF;" points="172.497,467.927 175.152,467.927 196.769,379.22 194.113,379.22 						"/>
						<polygon style="fill:#8E8BC4;" points="248.718,467.927 257.665,467.927 279.282,379.22 270.335,379.22 						"/>
						<polygon style="fill:#FFFFFF;" points="248.718,467.927 251.374,467.927 272.99,379.22 270.335,379.22 						"/>
						<path style="fill:#8E8BC4;" d="M279.282,379.22h-8.947l-0.348,1.429l4.001,1.927c2.063,0.993,4.517-0.166,5.059-2.391
							L279.282,379.22z"/>
						<path style="fill:#8E8BC4;" d="M203.061,379.22h-8.947l-0.348,1.429l4.001,1.927c2.063,0.993,4.517-0.166,5.059-2.391
							L203.061,379.22z"/>
						<polygon style="fill:#8E8BC4;" points="185.611,425.371 265.609,425.371 265.609,418.421 187.357,418.421 						"/>
					</g>
				</g>
			</g>
		</g>
		<g style="clip-path:url(#SVGID_00000027598115464810929700000003319779037677670581_);">
			<rect x="340.776" y="364.959" style="fill:#FFFFFF;" width="94.387" height="5.34"/>
			<g>
				<g>
					<polygon style="fill:#8E8BC4;" points="366.937,370.3 270.465,370.3 253.79,296.97 350.262,296.97 					"/>
					<polygon style="fill:#FFFFFF;" points="366.937,370.3 362.883,370.3 346.208,296.97 350.262,296.97 					"/>
				</g>
				<path style="fill:#FFFFFF;" d="M315.843,333.635c0.926,4.074-1.684,7.376-5.829,7.376c-4.146,0-8.257-3.302-9.184-7.376
					c-0.926-4.074,1.684-7.376,5.829-7.376S314.917,329.561,315.843,333.635z"/>
			</g>
			<rect x="340.776" y="369.041" style="fill:#8E8BC4;" width="94.387" height="1.259"/>
		</g>
		<g style="clip-path:url(#SVGID_00000027598115464810929700000003319779037677670581_);">
			<g>
				<path style="fill:none;stroke:#232147;stroke-width:2.5982;stroke-miterlimit:10;" d="M78.412,278.752
					c0,0-22.07,97.361,4.299,169.563"/>
				<path style="fill:#FF4267;" d="M65.671,236.694l-1.097,21.547l4.461-19.679l6.811,3.781l-4.055,26.986l8.299-24.63l5.858,3.252
					l-1.741,8.421l3.176-7.624l5.097,2.83l-6.263,20.746l10.279-18.517l11.703,6.496l-12.398,17.34l16.021-15.329l5.22,2.898
					l-3.34,5.026l4.931-4.143l7.253,4.026c-10.385,18.708-33.969,25.454-52.677,15.07c-18.708-10.385-25.454-33.969-15.07-52.677
					L65.671,236.694z"/>
				<path style="fill:#8C7F1F;" d="M59.054,307.62c5.723,9.067,8.438,18.416,7.727,24.79c-6.059-2.1-13.332-8.572-19.055-17.639
					c-5.723-9.067-8.438-18.416-7.727-24.79C46.058,292.081,53.331,298.553,59.054,307.62z"/>
				<path style="fill:#8C7F1F;" d="M85.216,332.425c6.9-8.207,14.983-13.634,21.271-14.893c-0.16,6.411-4.117,15.306-11.016,23.513
					c-6.9,8.207-14.983,13.633-21.271,14.892C74.36,349.527,78.317,340.632,85.216,332.425z"/>
			</g>
			<g>
				<g>
					
						<ellipse transform="matrix(0.7071 -0.7071 0.7071 0.7071 -295.9344 112.3576)" style="fill:#8C7F1F;" cx="-12.34" cy="413.403" rx="69.187" ry="69.187"/>
					<circle style="fill:#8C7F1F;" cx="53.936" cy="431.217" r="51.602"/>
					
						<ellipse transform="matrix(0.4068 -0.9135 0.9135 0.4068 -349.372 363.9147)" style="fill:#8C7F1F;" cx="105.538" cy="450.983" rx="30.446" ry="30.446"/>
					
						<ellipse transform="matrix(0.9316 -0.3635 0.3635 0.9316 -174.877 100.9987)" style="fill:#8C7F1F;" cx="180.878" cy="515.083" rx="30.446" ry="30.446"/>
					<circle style="fill:#8C7F1F;" cx="130.281" cy="503.715" r="52.732"/>
				</g>
				<polygon style="fill:#8C7F1F;" points="180.878,545.529 -81.527,545.529 -81.527,413.403 -12.34,413.403 133.629,471.711 				
					"/>
			</g>
			<g>
				<path style="fill:none;stroke:#232147;stroke-width:2;stroke-miterlimit:10;" d="M139.216,366.043
					c0,0-18.865,74.495-62.172,114.813"/>
				<path style="fill:#FF4267;" d="M167.942,350.837l-11.263,12.205l8.424-13.05l-5.747-1.711l-12.663,16.761l9.081-17.827
					l-4.943-1.472l-3.695,5.492l2.484-5.853l-4.301-1.281l-8.041,14.616l4.652-15.624l-9.875-2.94l-2.864,16.157l-0.193-17.067
					l-4.405-1.311l-0.966,4.544l-0.375-4.943l-6.12-1.822c-4.7,15.786,4.286,32.393,20.072,37.093
					c15.786,4.7,32.393-4.286,37.093-20.072L167.942,350.837z"/>
				<path style="fill:#8C7F1F;" d="M142.412,392.606c-7.093,4.221-12.22,9.686-13.959,14.306c4.89,0.676,12.139-1.224,19.232-5.444
					c7.093-4.221,12.22-9.686,13.959-14.306C156.755,386.486,149.505,388.386,142.412,392.606z"/>
				<path style="fill:#8C7F1F;" d="M115.802,400.484c-1.867-8.04-5.516-14.585-9.39-17.645c-2.13,4.454-2.522,11.937-0.655,19.977
					c1.866,8.04,5.516,14.585,9.39,17.645C117.276,416.008,117.669,408.524,115.802,400.484z"/>
			</g>
			<g>
				<path style="fill:#515C14;" d="M145.347,509.612c0.001-0.159,0.012-0.316,0.012-0.475c0-16.998-5.395-32.724-14.545-45.595
					l-18.581,10.158c0,0,9.884-10.47,14.588-15.312c-12.404-14.715-30.084-24.839-50.136-27.424l-4.952,12.783l0.833-13.204
					c-2.001-0.152-4.016-0.255-6.056-0.255c-12.608,0-24.52,2.966-35.089,8.229l2.906,10.855l-6.084-9.183
					c-9.715,5.405-18.172,12.798-24.812,21.638l13.599,13.842l-17.913-7.482c-7.269,11.936-11.457,25.954-11.457,40.951
					c0,0.159,0.011,0.316,0.012,0.475H145.347z"/>
				<path style="fill:#232147;" d="M141.364,484.361l-69.105,22.387l64.624-33.163c-0.328-0.649-0.649-1.303-0.994-1.941
					l-68.254,36.328l33.896-69.48c-1.153-0.573-2.321-1.118-3.506-1.635l-31.015,69.921V430.3c-0.167-0.001-0.332-0.013-0.5-0.013
					c-0.168,0-0.333,0.012-0.5,0.013v75.174l-20.153-72.435c-0.826,0.224-1.65,0.45-2.464,0.7l21.766,72.631l-43.875-61.805
					c-0.273,0.191-0.544,0.384-0.815,0.579l38.614,54.393L16.115,448.5c-0.256,0.213-0.502,0.438-0.756,0.655l49.538,58.844
					l-72.04-27.019c-0.375,0.98-0.727,1.971-1.063,2.97l74.546,25.658l0.169-0.471l0,0l0.154,0.475l75.021-24.304
					C141.584,484.99,141.469,484.677,141.364,484.361z"/>
				
					<ellipse transform="matrix(0.671 -0.7415 0.7415 0.671 -355.6194 216.8169)" style="fill:#232147;" cx="66.51" cy="509.137" rx="14.364" ry="14.364"/>
			</g>
		</g>
		<g style="clip-path:url(#SVGID_00000027598115464810929700000003319779037677670581_);">
			<path style="fill:#FFFFFF;" d="M90.036,206.246c-10.964,1.333-11.872,2.413-12.992,15.464
				c-1.12-13.051-2.028-14.131-12.992-15.464c10.964-1.333,11.872-2.413,12.992-15.464
				C78.164,203.833,79.072,204.913,90.036,206.246z"/>
			<path style="fill:#FFFFFF;" d="M156.925,299.831c-14.945,1.817-16.183,3.29-17.709,21.078
				c-1.526-17.789-2.764-19.262-17.709-21.078c14.945-1.817,16.183-3.29,17.709-21.078
				C140.742,296.541,141.98,298.014,156.925,299.831z"/>
			<path style="fill:#FFFFFF;" d="M370.583,102.312c-19.138,2.327-20.723,4.213-22.677,26.992
				c-1.955-22.78-3.539-24.666-22.678-26.992c19.138-2.327,20.723-4.213,22.678-26.992
				C349.86,98.099,351.445,99.985,370.583,102.312z"/>
			<path style="fill:#FFFFFF;" d="M714.989,197.59c-11.998,1.458-12.991,2.641-14.217,16.922
				c-1.226-14.281-2.219-15.463-14.217-16.922c11.998-1.459,12.991-2.641,14.217-16.922
				C701.997,194.949,702.991,196.131,714.989,197.59z"/>
			<path style="fill:#FFFFFF;" d="M678.861,320.709c-7.731,0.94-8.371,1.702-9.161,10.904c-0.79-9.202-1.43-9.964-9.161-10.904
				c7.731-0.94,8.371-1.702,9.161-10.904C670.49,319.007,671.13,319.769,678.861,320.709z"/>
		</g>
	</g>
</g>
</svg>
