<?xml version="1.0" encoding="UTF-8" standalone="no"?>
<!-- Created with Inkscape (http://www.inkscape.org/) -->

<svg
   width="127.85128mm"
   height="92.129105mm"
   viewBox="0 0 127.85128 92.129105"
   version="1.1"
   id="svg1"
   xml:space="preserve"
   xmlns:inkscape="http://www.inkscape.org/namespaces/inkscape"
   xmlns:sodipodi="http://sodipodi.sourceforge.net/DTD/sodipodi-0.dtd"
   xmlns="http://www.w3.org/2000/svg"
   xmlns:svg="http://www.w3.org/2000/svg"><sodipodi:namedview
     id="namedview1"
     pagecolor="#ffffff"
     bordercolor="#000000"
     borderopacity="0.25"
     inkscape:showpageshadow="2"
     inkscape:pageopacity="0.0"
     inkscape:pagecheckerboard="0"
     inkscape:deskcolor="#d1d1d1"
     inkscape:document-units="mm" /><defs
     id="defs1" /><g
     inkscape:label="Capa 1"
     inkscape:groupmode="layer"
     id="layer1"
     style="display:none"
     transform="translate(-42.558328,-86.058393)"><path
       style="display:inline;fill:#333333;fill-opacity:1"
       d="m 118.90468,167.56545 c -0.77309,-0.83555 -1.16873,-1.05833 -1.87958,-1.05833 -1.68332,0 -1.72413,-0.21122 -1.72413,-8.92242 0,-9.4939 -0.31068,-8.80467 3.96875,-8.80467 4.28444,0 3.96875,-0.7123 3.96875,8.95483 0,7.31398 -0.0357,7.9288 -0.48386,8.33438 -0.26612,0.24083 -0.73534,0.43788 -1.04272,0.43788 -0.90052,0 -0.96672,0.51555 -0.17261,1.34441 l 0.73986,0.77225 h -1.19763 c -1.05764,0 -1.31208,-0.1237 -2.17683,-1.05833 z m 2.08483,-9.92187 v -6.61459 h -1.81332 -1.81332 l 0.0401,6.29525 c 0.022,3.46238 0.10866,6.47401 0.1925,6.6925 0.11745,0.30607 0.52449,0.37937 1.77326,0.31934 l 1.62082,-0.0779 z m -61.09985,8.44776 c -0.35967,-0.35966 -0.41577,-1.49672 -0.41577,-8.42566 0,-7.42382 0.0354,-8.04192 0.48385,-8.44776 0.3866,-0.34987 1.05135,-0.43789 3.30729,-0.43789 h 2.82344 v 1.05834 1.05833 h -2.33715 c -2.41026,0 -2.432338,0.0217 -2.42804,0.65822 0.0015,0.22825 0.28813,2.99589 0.32843,6.50663 l 0.0711,6.19661 2.18282,0.0769 2.18281,0.0768 v 1.04763 1.04764 h -2.89152 c -2.27587,0 -2.98004,-0.0885 -3.30729,-0.41578 z m 13.541,0.13 c -0.42511,-0.2476 -0.46302,-0.93681 -0.46302,-8.41761 0,-7.55756 0.035,-8.17966 0.48385,-8.58581 0.38525,-0.34865 1.04726,-0.43789 3.24842,-0.43789 4.280659,0 3.940642,-0.76254 3.940642,8.83754 0,7.4276 -0.03539,8.04581 -0.483855,8.45167 -0.389388,0.35239 -1.048006,0.43631 -3.373437,0.42983 -1.58927,-0.004 -3.09794,-0.1294 -3.3526,-0.27773 z m 4.960933,-8.57776 v -6.64038 l -1.557874,-0.0546 c -1.999652,-0.0179 -1.900063,-0.16309 -1.929303,0.0747 -0.175627,1.42849 -0.0391,3.16934 0.07673,6.79904 l 0.206298,6.46443 1.550501,0.0501 1.653643,-0.0788 z m 8.863542,0 v -8.86355 h 3.439583 c 4.902416,0 4.497917,-0.80531 4.497917,8.95483 0,7.31398 -0.03569,7.9288 -0.483854,8.33438 -0.39868,0.3608 -1.097315,0.43788 -3.96875,0.43788 h -3.484896 z m 5.76319,0.52916 c 0.04106,-3.34698 0.0077,-6.35866 -0.07417,-6.69263 -0.138927,-0.56684 -0.26395,-0.60203 -1.879942,-0.52917 l -1.731119,0.0781 0.02802,6.28479 c 0.01541,3.45664 0.09842,6.46826 0.184472,6.6925 0.122207,0.31847 0.51125,0.39066 1.777275,0.3298 l 1.620821,-0.0779 z m 8.788895,-0.52916 v -8.86355 h 3.43958 3.43958 v 1.05834 1.05833 h -2.45962 -2.45962 l 0.0954,2.57969 c 0.0525,1.41883 0.14353,2.72851 0.20236,2.91042 0.0711,0.2199 0.68601,0.33072 1.83505,0.33072 h 1.7281 v 1.05834 1.05833 l -1.91823,-1.3e-4 -1.91823,-1.4e-4 0.0802,2.44753 c 0.0441,1.34614 0.12965,2.59636 0.19013,2.77826 0.0765,0.23015 0.79648,0.33073 2.36724,0.33073 h 2.25727 v 1.05833 1.05834 h -3.43959 -3.43958 z m 28.04583,0 v -8.86355 h 3.38901 c 4.54316,0 4.39182,-0.133 4.50478,3.95909 0.072,2.60963 0.009,3.33034 -0.33683,3.85832 -0.39025,0.5956 -0.39039,0.70271 -0.002,1.29598 0.34782,0.53084 0.40818,1.28227 0.33683,4.19363 -0.0615,2.51023 -0.19305,3.6745 -0.45004,3.98348 -0.30431,0.36587 -0.93642,0.43659 -3.90261,0.43659 h -3.53948 z m 5.66023,6.32836 c 0.0883,-0.23019 0.1606,-1.41107 0.1606,-2.6242 0,-3.06532 0.0155,-3.04271 -2.08818,-3.04271 h -1.76698 l 0.092,2.71198 c 0.0506,1.49159 0.14036,2.86081 0.19949,3.04271 0.16999,0.52296 3.19871,0.44484 3.40309,-0.0878 z m 0,-8.20209 c 0.2927,-0.76274 0.17344,-4.22531 -0.1569,-4.55565 -0.17778,-0.17778 -1.03015,-0.3175 -1.93694,-0.3175 H 131.8 l 0.10305,2.31511 c 0.0567,1.2733 0.15066,2.46393 0.20885,2.64583 0.16732,0.52308 3.19698,0.44489 3.40138,-0.0878 z m 8.69226,10.25272 c 0.0697,-0.2665 0.75897,-4.25509 1.53173,-8.86354 l 1.40501,-8.379 h 1.40955 c 0.77526,0 1.41117,0.0893 1.41314,0.19844 0.002,0.10914 0.65657,4.00844 1.45468,8.66511 0.7981,4.65666 1.45133,8.55596 1.45162,8.6651 2.9e-4,0.10914 -0.46525,0.19844 -1.03455,0.19844 -1.01186,0 -1.03929,-0.0252 -1.22302,-1.12448 -0.10338,-0.61847 -0.3222,-1.21195 -0.48628,-1.31887 -0.40446,-0.26354 -3.12532,-0.24732 -3.54844,0.0212 -0.18749,0.11897 -0.26362,0.41377 -0.1699,0.65799 0.0934,0.24336 0.0952,0.73985 0.004,1.10333 -0.14312,0.57026 -0.31451,0.66087 -1.25002,0.66087 -0.92061,0 -1.06503,-0.0731 -0.95744,-0.48455 z m 5.64513,-4.63565 c 0.20722,-0.54001 -1.04163,-7.45609 -1.33451,-7.39046 -0.28046,0.0628 -1.51146,7.19466 -1.3007,7.53567 0.22837,0.36951 2.48542,0.24514 2.63521,-0.14521 z M 83.038573,138.30919 c -0.03124,-1.02249 -1.337467,-4.46244 -3.056769,-8.04999 -2.16785,-4.52349 -2.619449,-6.74556 -2.607953,-12.83229 0.007,-3.68678 0.09527,-4.56024 0.683974,-6.76535 2.959116,-11.083987 12.730068,-17.836462 26.659815,-18.423971 10.18709,-0.429657 19.99233,2.835232 23.70524,7.893221 0.52034,0.70884 1.04709,1.28881 1.17055,1.28881 0.12346,0 0.27407,-0.32742 0.33469,-0.7276 0.0887,-0.58527 0.12531,-0.52057 0.18733,0.33072 0.0424,0.58209 0.09,1.35599 0.10579,1.7198 0.0248,0.57172 0.14468,0.65623 0.88373,0.62297 l 0.85505,-0.0385 -0.59046,0.48288 -0.59047,0.48288 0.96414,1.01082 c 2.04383,2.14278 2.95372,5.09079 2.96603,9.60977 0.009,3.45578 -0.21946,4.61749 -2.34562,11.90625 -0.78531,2.69213 -1.71561,5.96635 -2.06734,7.27604 l -0.63951,2.38125 -0.18896,-2.11667 c -0.10392,-1.16416 -0.46882,-4.02166 -0.81089,-6.35 -0.34207,-2.32833 -0.69826,-5.1263 -0.79153,-6.2177 -0.23595,-2.76084 -0.22766,-2.74524 -1.19256,-2.24627 -0.44465,0.22994 -1.65428,0.70423 -2.68806,1.05398 -1.03378,0.34975 -2.21992,0.96197 -2.63588,1.36048 -0.41595,0.3985 -0.75627,0.63893 -0.75627,0.53427 0,-0.55261 0.95852,-2.3234 2.27333,-4.19978 0.81478,-1.16277 1.70554,-2.60772 1.97948,-3.21101 0.49635,-1.09311 0.68834,-3.20961 0.31125,-3.43124 -0.10914,-0.0641 -1.29757,0.67297 -2.64094,1.63803 -3.28761,2.36178 -6.37029,4.09053 -10.30936,5.78144 -3.63955,1.56235 -10.08797,3.83807 -10.49294,3.70308 -0.14301,-0.0477 0.32559,-0.42457 1.04135,-0.83755 2.20385,-1.27159 4.80853,-3.52297 6.19555,-5.35518 1.49991,-1.98134 1.76431,-2.84583 0.59592,-1.94849 -4.46207,3.42694 -9.00076,5.62335 -15.928641,7.70833 l -2.501038,0.7527 1.537012,-1.51129 c 1.467411,-1.44286 2.803605,-3.54605 2.803605,-4.41292 0,-0.6142 -0.34914,-0.49202 -1.207269,0.42249 -1.890529,2.01474 -5.908587,4.62571 -8.924109,5.79896 l -1.902021,0.74003 0.08492,6.70132 c 0.05245,4.13866 -0.01801,6.95427 -0.184238,7.36278 -0.239804,0.58932 -0.270988,0.60159 -0.28593,0.11249 z m 7.061013,-2.4115 c -0.51091,-0.13353 -0.644011,-0.57832 -0.811332,-2.71125 -0.0848,-1.08103 -0.259203,-1.55691 -0.70197,-1.91544 l -0.589133,-0.47705 0.687325,-0.81684 c 0.564835,-0.67127 0.687326,-1.08671 0.687326,-2.33113 0,-1.66981 0.295887,-2.15349 1.309687,-2.1409 l 0.674688,0.008 -0.727605,0.54285 c -0.646747,0.48253 -0.727604,0.71226 -0.727604,2.06728 0,1.18097 -0.117501,1.63076 -0.521542,1.99641 -0.519,0.46969 -0.519,0.47522 0,1.13502 0.369821,0.47015 0.521542,1.07049 0.521542,2.06366 0,1.34989 0.431958,2.23218 1.092847,2.23218 0.143715,0 0.187715,0.11906 0.09778,0.26458 -0.170445,0.27579 -0.231929,0.28089 -0.992007,0.0822 z m 10.384714,-0.0357 c 0,-0.15149 0.22395,-0.34651 0.49766,-0.43338 0.53383,-0.16944 0.82526,-1.15425 0.82526,-2.7888 0,-0.55977 0.17312,-1.13655 0.39687,-1.32224 0.47184,-0.39159 0.51944,-0.97339 0.0913,-1.11609 -0.16806,-0.056 -0.40499,-0.92774 -0.52651,-1.93714 -0.17269,-1.4345 -0.35152,-1.93579 -0.81891,-2.29556 l -0.59797,-0.46028 0.67468,-0.006 c 0.99796,-0.009 1.30969,0.47071 1.30969,2.01418 0,1.65326 0.36518,2.74243 0.91949,2.74243 0.57577,0 0.49827,0.49984 -0.16016,1.033 -0.44053,0.35672 -0.60137,0.86863 -0.73665,2.34452 -0.0952,1.03848 -0.22877,1.94385 -0.29685,2.01193 -0.29774,0.29774 -1.57791,0.4708 -1.57791,0.21331 z m 10.05417,-0.31109 c -0.41158,-0.41158 -0.52917,-0.88195 -0.52917,-2.11667 0,-1.23472 -0.11759,-1.70509 -0.52917,-2.11666 -0.29104,-0.29105 -0.52916,-0.61959 -0.52916,-0.73011 0,-0.11052 0.23812,-0.34965 0.52916,-0.53141 0.42983,-0.26843 0.52917,-0.61701 0.52917,-1.85686 0,-1.68678 0.50284,-2.70246 1.33792,-2.70246 0.28279,0 0.51416,0.11906 0.51416,0.26459 0,0.14552 -0.16585,0.26458 -0.36856,0.26458 -0.4966,0 -0.68977,0.58883 -0.68977,2.10262 0,0.88807 -0.167,1.4779 -0.55982,1.9773 -0.53634,0.68184 -0.53972,0.7264 -0.0807,1.06203 0.35479,0.25943 0.50816,0.80677 0.59112,2.10954 0.0878,1.37894 0.21964,1.81682 0.60989,2.02567 0.27382,0.14655 0.49787,0.38133 0.49787,0.52173 0,0.4387 -0.76967,0.27935 -1.32292,-0.27389 z m 10.84791,0.27389 c 0,-0.1404 0.23813,-0.38271 0.52917,-0.53848 0.42151,-0.22558 0.52917,-0.55399 0.52917,-1.6142 0,-1.30676 0.33358,-2.30832 0.88898,-2.66912 0.18202,-0.11824 0.10245,-0.37914 -0.22646,-0.74258 -0.35775,-0.39531 -0.53965,-1.07214 -0.61774,-2.2985 -0.0906,-1.42297 -0.20067,-1.76173 -0.6069,-1.86796 -0.62621,-0.16376 -0.65054,-0.59857 -0.0332,-0.59317 0.93836,0.008 1.19587,0.45481 1.37233,2.38002 0.12321,1.34416 0.30864,2.00863 0.62512,2.24005 0.58551,0.42813 0.56766,0.71374 -0.0792,1.26762 -0.42021,0.35979 -0.52917,0.7805 -0.52917,2.04317 0,1.23731 -0.1174,1.70749 -0.52916,2.11926 -0.55325,0.55324 -1.32292,0.71259 -1.32292,0.27389 z m -15.61041,-5.03639 c 0,-2.64583 0.0661,-3.175 0.39687,-3.175 0.33073,0 0.39688,0.52917 0.39688,3.175 0,2.64583 -0.0662,3.175 -0.39688,3.175 -0.33073,0 -0.39687,-0.52917 -0.39687,-3.175 z m -11.357882,1.15494 c -1.203343,-1.5298 -0.219954,-3.22051 1.766734,-3.03749 0.181901,0.0168 0.33073,0.20078 0.33073,0.40894 0,0.20816 0.26789,0.41652 0.595312,0.46302 0.818474,0.11624 0.917585,1.22687 0.191821,2.14953 -0.771022,0.9802 -2.120275,0.98768 -2.884597,0.016 z m 20.882882,0.16798 c -0.66544,-0.66544 -0.70181,-2.14989 -0.0662,-2.69981 0.83397,-0.72148 1.59046,-0.74333 2.03892,-0.0589 0.22524,0.34376 0.57224,0.56258 0.7711,0.48627 0.47163,-0.18098 0.73347,0.81573 0.42644,1.62328 -0.4611,1.21279 -2.24202,1.57744 -3.17032,0.64915 z"
       id="path22"
       sodipodi:nodetypes="sssssssscsscccccsscccssscccssscccccsccsscssscscccssccccccssssccssccssscscccccccccsscccccsssccccccccssccsssccssscsssssssccssscscsssssssssssccscsssscsssscssscccscsscssssssssscssssssscsssscsssscsscssccssssssscccssssssccsssssccsssssssssssssssssssssssscssssssssssssscssssccssscc" /></g><g
     inkscape:groupmode="layer"
     id="layer2"
     inkscape:label="Capa 2"
     inkscape:export-filename="layer2.svg"
     inkscape:export-xdpi="96"
     inkscape:export-ydpi="96"
     transform="translate(-42.558328,-86.058393)"><path
       style="display:inline;fill:#b9b9b9;fill-opacity:1;stroke-width:0.970254"
       d="m 123.89617,177.28893 c 0,-0.7903 -0.0783,-0.89851 -0.65003,-0.89851 -2.26388,0 -4.48424,-2.22544 -4.48424,-4.49449 v -0.92098 l 1.60447,0.0765 c 1.49399,0.0712 1.61012,0.12061 1.68679,0.71821 0.17416,1.35753 1.84301,1.82244 1.84301,0.51343 v -0.77014 h 1.66863 1.66864 v 0.77014 c 0,0.87028 0.57044,1.03235 1.42704,0.40544 0.62882,-0.46021 0.77424,-8.57607 0.16458,-9.18528 -0.23292,-0.23274 -1.18011,-0.33348 -3.13557,-0.33348 -3.62637,0 -3.57601,-0.0492 -3.7729,3.68311 l -0.15104,2.86308 h -1.50183 -1.50182 l -0.0272,-2.24624 c -0.052,-4.29094 0.12712,-5.02185 1.54422,-6.3021 1.3017,-1.17601 2.98931,-1.56265 6.15045,-1.40909 3.31896,0.16123 4.70498,0.90663 5.60985,3.017 0.6075,1.41684 0.4819,9.74083 -0.16615,11.01055 -0.77828,1.5249 -2.43196,2.60441 -3.98961,2.60441 -0.57176,0 -0.65004,0.10821 -0.65004,0.89851 v 0.89849 h -1.66863 -1.66863 z m -78.767719,-1.44934 c -2.184314,-1.08121 -2.469666,-1.89593 -2.561927,-7.31476 -0.129218,-7.58871 1.217126,-9.10744 7.768553,-8.7633 3.706962,0.19473 5.689075,1.70542 5.856579,4.46365 l 0.06064,0.99823 -1.604461,0.0765 c -1.568289,0.0747 -1.60445,0.0617 -1.60445,-0.5776 0,-1.32077 -0.757749,-1.68089 -3.536868,-1.68089 -3.767758,0 -3.651104,-0.15981 -3.651104,5.00212 0,5.25627 -0.177081,5.00969 3.59776,5.00969 2.969404,0 3.590212,-0.27621 3.590212,-1.5974 0,-0.59679 3.007729,-0.68808 3.234109,-0.0981 0.470379,1.2258 -1.115084,3.76747 -2.83842,4.55028 -1.608274,0.73053 -6.782658,0.688 -8.310605,-0.0683 z m 19.338638,0.18598 c -1.634238,-0.73159 -2.952192,-2.7168 -2.952192,-4.44682 0,-0.54184 0.107892,-0.5793 1.668633,-0.5793 1.595641,0 1.668633,0.0273 1.668633,0.62345 0,1.2077 0.559255,1.43026 3.593986,1.43026 3.771077,0 3.593977,0.24728 3.593977,-5.01832 0,-5.11708 0.131741,-4.93762 -3.653511,-4.97688 -3.445761,-0.0357 -3.534452,0.0605 -3.534452,3.83408 v 2.82385 H 63.15775 61.463338 l 0.08994,-3.29228 c 0.14841,-5.43154 1.360267,-6.59018 6.89286,-6.59018 5.834031,0 6.757965,1.02948 6.889677,7.67678 0.113578,5.73205 -0.502049,7.50533 -2.962555,8.53339 -1.125203,0.47014 -6.844832,0.45709 -7.906183,-0.018 z m 16.044567,-2.33063 v -2.69549 h 1.668643 1.668634 v 1.02686 1.02685 h 3.190573 c 4.227436,0 3.997389,0.28176 3.997389,-4.89588 0,-5.33435 0.127957,-5.17459 -4.057176,-5.06569 l -3.002432,0.0781 -0.0718,3.2731 -0.0718,3.27309 H 82.167178 80.50067 l 0.06976,-4.94173 0.06976,-4.94172 h 5.005899 c 5.752501,0 6.434551,0.18833 7.829747,2.16205 l 0.770139,1.08948 0.08315,4.6637 0.08315,4.6637 -0.728496,1.39313 c -1.239325,2.37 -1.913846,2.58592 -8.077986,2.58592 h -5.093892 z m 21.787514,2.18052 c -1.65909,-0.87668 -3.133642,-3.35543 -2.687587,-4.51784 0.22638,-0.58993 3.234107,-0.49865 3.234107,0.0981 0,1.48145 0.41098,1.5974 5.66225,1.5974 h 4.86299 v 1.66863 1.66863 l -5.07008,-0.0113 c -4.48887,-0.01 -5.17688,-0.0678 -6.00168,-0.50362 z m 35.41452,-1.30648 c -0.0567,-1.00181 -0.0571,-2.21477 -8.8e-4,-2.6955 l 0.10203,-0.87403 h 1.5122 1.51219 v 1.02686 1.02685 h 3.09743 c 3.6798,0 4.09053,-0.15411 4.09053,-1.53476 0,-1.67581 -0.39967,-1.80251 -5.68594,-1.80251 h -4.54485 l -0.0831,-2.24624 c -0.0457,-1.23543 -0.0437,-3.49932 0.005,-5.03087 l 0.0875,-2.78464 4.40493,0.0902 c 4.1345,0.0847 4.47345,0.12936 5.52113,0.72816 2.00314,1.1449 2.99222,3.7513 2.24575,5.91794 -0.36301,1.05364 -0.35726,1.16723 0.0836,1.65086 1.78342,1.95645 1.7079,5.43571 -0.15456,7.11994 -1.16877,1.05693 -2.18229,1.22917 -7.23284,1.22917 h -4.85683 z m 8.74026,-8.53572 c 0.62705,-0.75554 0.62736,-1.86962 6.9e-4,-2.45346 -0.53865,-0.50182 -0.8333,-0.5486 -3.04174,-0.48288 l -2.44531,0.0728 -0.0765,1.60446 -0.0765,1.60446 h 2.6763 c 1.92899,0 2.75634,-0.0965 2.96293,-0.34536 z m 10.29313,8.62436 c -0.0587,-12.16905 -0.0667,-12.1046 1.68526,-13.6428 1.91113,-1.67799 7.69321,-1.81866 10.02052,-0.24377 1.94304,1.31483 2.04027,2.02318 1.92394,14.01492 l -0.0156,1.60445 h -1.54028 -1.54028 l -0.017,-1.7328 c -0.01,-0.95305 -0.0382,-2.42595 -0.0641,-3.2731 l -0.0472,-1.54027 -3.02842,-0.0724 -3.02841,-0.0724 0.0763,-1.5962 0.0763,-1.5962 2.9522,-0.12837 2.95221,-0.12835 -0.0532,-1.27893 c -0.0739,-1.77924 -0.3994,-1.95764 -3.48315,-1.90918 -3.98925,0.0627 -3.74761,-0.68746 -3.77633,11.72382 l -0.004,1.60445 h -1.54027 -1.54028 z m -57.180022,-9.88346 0.06976,-4.94172 6.867082,-0.0684 6.86707,-0.0684 v 1.67284 1.67282 l -2.63131,0.0197 c -1.44722,0.0108 -3.78651,0.0397 -5.19844,0.0641 l -2.56712,0.0445 -0.0763,1.59834 -0.0763,1.59834 4.4404,0.0703 4.44039,0.0703 0.0764,1.60445 0.0765,1.60446 h -6.17903 -6.178905 z M 84.619072,132.62377 v -1.15813 h 10.411641 10.411627 l -0.079,1.09103 -0.0789,1.09104 -10.332697,0.067 -10.332702,0.067 z M 44.658557,120.79614 c -0.08519,-0.22202 -0.04657,-0.51203 0.08587,-0.64448 0.147401,-0.1474 9.347331,-0.2154 23.715872,-0.17528 23.282061,0.065 23.475044,0.0698 23.475044,0.57896 0,0.71491 -47.003026,0.95432 -47.276832,0.2408 z m 11.722076,-5.37906 v -1.41592 l 7.252144,0.0682 7.252145,0.0682 0.07762,1.34774 0.07762,1.34774 h -7.329735 -7.329736 z m 66.231967,-4.9e-4 v -1.4164 l 6.35365,0.0687 6.35365,0.0687 0.0776,1.34774 0.0776,1.34774 h -6.43124 -6.43124 z m -73.484112,-2.8767 c 0.458872,-0.057 1.209761,-0.057 1.668633,0 0.458872,0.057 0.08344,0.10353 -0.834311,0.10353 -0.917754,0 -1.293194,-0.0466 -0.834322,-0.10353 z m 15.59532,-1.09786 -12.578946,-0.1357 12.499618,-0.0606 c 8.122055,-0.0393 12.555175,0.0294 12.658265,0.19621 0.08723,0.14119 0.12296,0.22948 0.07937,0.1962 -0.04366,-0.0333 -5.739849,-0.12157 -12.658265,-0.1962 z m 60.923052,-0.19238 c 3.57494,-0.0403 9.35098,-0.0403 12.83565,9e-5 3.48468,0.0404 0.55973,0.0733 -6.49988,0.0733 -7.05961,-4e-5 -9.9107,-0.0331 -6.33577,-0.0734 z m -39.695358,-7.44483 c 0.0817,-0.42398 1.414931,-0.44925 23.697088,-0.44925 22.28216,0 23.61544,0.0252 23.69709,0.44925 0.0819,0.42524 -1.18422,0.44924 -23.69709,0.44924 -22.512864,0 -23.778977,-0.024 -23.697088,-0.44924 z M 77.17439,99.248153 v -1.419792 l 7.380499,0.06811 7.3805,0.06811 v 1.283559 1.28357 l -7.3805,0.0681 -7.380499,0.0681 z M 72.4252,96.295952 c 0.838309,-0.847149 1.581961,-1.540279 1.652566,-1.540279 0.07063,0 -0.557537,0.69313 -1.395856,1.540279 -0.838309,0.847158 -1.58197,1.540278 -1.652566,1.540278 -0.07063,0 0.557537,-0.69312 1.395856,-1.540278 z M 57.061518,96.103424 c -0.06578,-0.105893 1.573607,-0.162702 3.643013,-0.12623 6.944564,0.122398 7.653995,0.215057 2.044898,0.267101 -3.062597,0.02843 -5.622157,-0.03503 -5.687911,-0.140871 z m 59.051262,2.52e-4 c 3.41411,-0.04046 9.07464,-0.04046 12.57894,-8.7e-5 3.5043,0.04036 0.71094,0.07345 -6.20747,0.07345 -6.91842,4.9e-5 -9.78558,-0.03299 -6.37147,-0.07335 z M 75.061109,94.569627 c 0.461394,-0.05715 1.154524,-0.05598 1.540278,0.0029 0.385744,0.0586 0.0078,0.105321 -0.83892,0.103885 -0.847149,-9.7e-4 -1.162763,-0.04939 -0.701358,-0.106505 z m 4.242901,-0.0049 c 1.100686,-0.04822 2.833501,-0.04793 3.850696,6.5e-4 1.017185,0.04861 0.116615,0.0881 -2.001265,0.08771 -2.117881,-3.59e-4 -2.950126,-0.04007 -1.849431,-0.08839 z m 7.701392,0 c 1.100685,-0.04822 2.833501,-0.04793 3.850696,6.5e-4 1.017185,0.04861 0.116615,0.0881 -2.001266,0.08771 -2.11788,-3.59e-4 -2.950125,-0.04007 -1.84943,-0.08839 z m 7.561296,4.17e-4 c 1.023648,-0.04871 2.698694,-0.04871 3.722341,0 1.023648,0.04871 0.186115,0.08858 -1.86117,0.08858 -2.047285,0 -2.884808,-0.03988 -1.861171,-0.08858 z m 6.802902,0.0039 c 0.52946,-0.0554 1.39587,-0.0554 1.92535,0 0.52947,0.0554 0.0962,0.100703 -0.96268,0.100703 -1.05894,0 -1.49214,-0.04531 -0.96267,-0.100703 z m 5.95649,-1.160734 -1.01477,-1.091032 1.09103,1.014779 c 0.60007,0.55812 1.09104,1.049088 1.09104,1.091032 0,0.194216 -0.22356,-1.26e-4 -1.1673,-1.014779 z m 39.91715,-0.641785 -0.88468,-0.962666 0.96268,0.884668 c 0.52946,0.486572 0.96267,0.919781 0.96267,0.962676 0,0.19603 -0.21724,0.01135 -1.04067,-0.884678 z m -96.702829,0.0039 c 0.670659,-0.05288 1.768114,-0.05288 2.438773,0 0.670659,0.05288 0.121941,0.09615 -1.219386,0.09615 -1.341328,0 -1.890055,-0.04327 -1.219387,-0.09615 z m 55.581369,-6.667412 c 0.31933,-0.06142 0.78142,-0.05909 1.02685,0.0049 0.24544,0.06423 -0.0158,0.114499 -0.5806,0.111647 -0.56476,-0.0029 -0.76558,-0.0554 -0.44625,-0.116829 z"
       id="path26" /><path
       style="display:none;fill:#8c8c8c;fill-opacity:1;stroke-width:0.970254"
       d="m 89.817509,118.43758 c 4.624046,-0.0392 12.190661,-0.0392 16.814711,0 4.62404,0.0392 0.84073,0.0713 -8.407363,0.0713 -9.248083,0 -13.031395,-0.0321 -8.407348,-0.0713 z m 50.379941,-1.34787 c 0.83832,-0.84715 1.58197,-1.54028 1.65256,-1.54028 0.0706,0 -0.55754,0.69313 -1.39585,1.54028 -0.83831,0.84716 -1.58196,1.54028 -1.65256,1.54028 -0.0706,0 0.55754,-0.69312 1.39585,-1.54028 z m -22.76207,-8.78808 c 0.10357,-0.1035 6.56128,-0.21902 14.35047,-0.25671 7.7892,-0.0376 14.07744,0.0162 13.97388,0.11967 -0.10356,0.1035 -6.56127,0.21903 -14.35047,0.25671 -7.78919,0.0376 -14.07743,-0.0162 -13.97388,-0.11967 z m -58.533794,-0.13254 c 3.716199,-0.0401 9.723284,-0.0401 13.349085,7e-5 3.625791,0.0402 0.585267,0.073 -6.756723,0.073 -7.342,-4e-5 -10.308562,-0.0329 -6.592362,-0.073 z m -9.773098,-1.27689 c 0.458872,-0.057 1.209761,-0.057 1.668633,0 0.458872,0.057 0.08344,0.10354 -0.834311,0.10354 -0.917754,0 -1.293194,-0.0466 -0.834322,-0.10354 z m 7.988063,-7.584541 c 0.108678,-0.108455 3.019974,-0.166059 6.469557,-0.127996 l 6.271955,0.06918 -6.469547,0.128006 c -3.558252,0.07044 -6.380634,0.0393 -6.271965,-0.06918 z m 58.005189,-0.123533 c 3.7162,-0.04007 9.72329,-0.04007 13.34909,7.8e-5 3.62579,0.04017 0.58527,0.07296 -6.75672,0.07296 -7.34199,-4.8e-5 -10.30856,-0.03289 -6.59237,-0.07296 z m -7.20596,-13.081149 c 0.31768,-0.06122 0.83753,-0.06122 1.15521,0 0.31768,0.06122 0.0577,0.111249 -0.5776,0.111249 -0.63538,0 -0.8953,-0.05007 -0.57761,-0.111249 z"
       id="path25" /><path
       style="display:none;fill:#606060;fill-opacity:1;stroke-width:0.970254"
       d="m 66.186922,138.71937 c 1.228294,-0.047 3.307664,-0.0472 4.620835,-4.9e-4 1.313171,0.0467 0.308202,0.0851 -2.233253,0.0854 -2.541464,2.6e-4 -3.615875,-0.0379 -2.387582,-0.0849 z m -0.231997,-2.82392 c 1.100695,-0.0482 2.833511,-0.0479 3.850696,6.5e-4 1.017195,0.0486 0.116624,0.0881 -2.001256,0.0877 -2.11788,-3.6e-4 -2.950135,-0.0401 -1.84944,-0.0884 z m 13.235818,-12.9667 c 0.106563,-0.10655 12.374892,-0.1643 27.262957,-0.12833 l 27.0692,0.0654 -27.26295,0.12832 c -14.994628,0.0706 -27.17577,0.0411 -27.069207,-0.0654 z m 76.733377,-3.71019 c 0.31932,-0.0614 0.7814,-0.0591 1.02685,0.005 0.24543,0.0642 -0.0158,0.1145 -0.5806,0.11165 -0.56477,-0.003 -0.76558,-0.0554 -0.44625,-0.11683 z m -72.934153,-3.60495 c -0.108135,-0.17476 10.940614,-0.1721 24.861633,0.006 2.96504,0.0379 -1.38906,0.0954 -9.67577,0.12776 -8.286707,0.0323 -15.120342,-0.0279 -15.185863,-0.13374 z m -5.710372,-4.16906 c -0.158734,-0.15874 -4.877613,-0.2802 -12.5661,-0.32345 l -12.311913,-0.0693 12.354973,-0.0616 c 10.72022,-0.0535 12.397256,-0.0107 12.674545,0.32344 0.356578,0.42964 0.244271,0.52665 -0.151505,0.13088 z m 54.703035,-0.25923 -12.83565,-0.13557 12.75632,-0.0605 c 8.29326,-0.0394 12.81183,0.0292 12.91498,0.19613 0.0872,0.1412 0.12296,0.22946 0.0794,0.19614 -0.0437,-0.0333 -5.85537,-0.12158 -12.91499,-0.19614 z m -81.057154,-8.66079 c 0.741265,-0.0518 1.954228,-0.0518 2.695492,0 0.741255,0.0518 0.134768,0.0943 -1.347741,0.0943 -1.482519,0 -2.089006,-0.0424 -1.347751,-0.0943 z m 85.746764,-2.0505 c 0.46141,-0.0571 1.15453,-0.056 1.54028,0.003 0.38574,0.0586 0.008,0.10532 -0.83892,0.10388 -0.84715,-9.7e-4 -1.16276,-0.0494 -0.70136,-0.1065 z m -31.01011,-4.370606 -1.66122,-1.732815 1.73281,1.66122 c 0.95304,0.913669 1.73281,1.693433 1.73281,1.732806 0,0.188947 -0.2614,-0.05172 -1.8044,-1.661211 z M 72.553555,95.958915 c 0,-0.04415 0.37544,-0.419626 0.834321,-0.834322 l 0.834312,-0.753984 -0.753984,0.834311 c -0.702823,0.777708 -0.914649,0.952324 -0.914649,0.753995 z m -1.925353,-2.230091 c 0.695352,-0.705956 1.32203,-1.283568 1.392625,-1.283568 0.07064,0 -0.440563,0.577612 -1.135905,1.283568 -0.695352,0.705957 -1.32203,1.283569 -1.392625,1.283569 -0.07063,0 0.440563,-0.577612 1.135905,-1.283569 z M 102.5278,86.359298 c 0.31933,-0.06142 0.78141,-0.05909 1.02685,0.0049 0.24544,0.06423 -0.0158,0.11449 -0.58059,0.111637 -0.56478,-0.0029 -0.76559,-0.0554 -0.44626,-0.116818 z m 9.12292,-0.26648 c 1.24237,-0.04715 3.20622,-0.04686 4.36412,5.44e-4 1.1579,0.04744 0.14143,0.08606 -2.25884,0.08577 -2.40027,-2.91e-4 -3.34764,-0.0391 -2.10528,-0.08626 z"
       id="path24" /><path
       style="display:inline;fill:#ffffff;fill-opacity:1;stroke-width:0.970254"
       d="m 79.869882,143.80125 c 13.425279,-3.39085 26.541458,-7.62742 36.175808,-11.6849 3.182,-1.34008 11.3104,-5.30268 12.08624,-5.89205 0.46044,-0.34977 -1.96368,-0.39026 -23.48924,-0.39243 l -24.002669,-0.002 -3.687713,6.41207 -3.687702,6.41207 h -4.581171 c -5.090729,0 -4.683523,-0.13984 -5.97986,2.05371 l -0.834409,1.41192 -2.707562,0.0725 -2.707562,0.0725 -1.320273,-2.28764 c -1.604606,-2.7803 -1.604286,-2.43333 -0.0049,-5.20477 l 1.31547,-2.27932 2.727763,0.003 2.727752,0.003 0.874335,1.60141 c 1.136129,2.08091 0.871191,1.97801 5.104846,1.98255 l 3.668764,0.004 0.756953,-1.21938 c 0.416327,-0.67066 2.117987,-3.58756 3.781468,-6.48201 l 3.024505,-5.26262 27.226335,-0.12835 27.22633,-0.12836 2.03341,-1.52896 c 4.23669,-3.18565 9.87878,-9.46841 9.15387,-10.19332 -0.12087,-0.12087 -5.93053,-0.18979 -12.91034,-0.15314 l -12.69057,0.0667 -2.07013,3.59397 -2.07013,3.59399 H 98.224799 81.440054 l -2.070125,-3.59399 -2.070134,-3.59397 -12.375454,-0.0667 -12.375455,-0.0667 -0.571208,0.77261 c -0.519658,0.70287 -0.704152,0.77259 -2.044364,0.77259 h -1.473166 l -0.794822,-1.3892 -0.794823,-1.38921 0.728544,-1.2421 0.728555,-1.2421 1.573994,-0.0761 c 1.443952,-0.0698 1.609399,-0.022 2.002313,0.5776 l 0.428309,0.65368 h 13.267313 13.267322 l 2.140594,3.72235 2.140593,3.72234 h 14.977143 14.977147 l 0.45516,-0.69079 c 0.25035,-0.37993 1.21959,-2.0261 2.15389,-3.65815 l 1.69873,-2.96739 14.2535,-0.0663 14.25348,-0.0664 0.15908,-0.8479 c 0.40808,-2.17528 -0.74302,-5.07624 -2.83341,-7.14067 -1.32179,-1.305372 -1.37674,-1.414166 -1.37674,-2.726086 0,-1.919356 -1.23298,-3.272182 -3.46998,-3.807248 -4.08848,-0.977919 -19.59767,-3.1137 -33.36834,-4.595171 -2.11788,-0.227845 -5.352468,-0.575089 -7.187966,-0.771653 -1.835497,-0.196564 -4.376961,-0.437177 -5.647684,-0.534688 -3.953222,-0.30335 -3.460236,-0.511314 2.34556,-0.989436 7.28638,-0.600063 24.68363,-0.846954 30.02559,-0.426106 16.34057,1.287314 24.2387,4.79095 24.95548,11.070317 l 0.17709,1.551446 2.18206,0.935865 c 11.71777,5.02571 17.79121,12.61805 16.03908,20.05028 -0.64405,2.73195 -0.64871,2.73508 -2.36805,1.58874 -3.96103,-2.64094 -9.72506,-3.1323 -16.52465,-1.4087 -3.35258,0.84984 -4.57371,1.34826 -16.06588,6.55751 -23.41131,10.61202 -37.395656,15.25988 -53.203346,17.6827 -5.254284,0.80532 -5.22312,0.60308 0.11484,-0.74513 z m -31.64179,-43.67853 -1.349643,-2.327522 1.349643,-2.412653 1.349643,-2.412644 2.823847,-0.0039 2.823837,-0.0039 0.885173,1.66647 0.885172,1.666469 h 5.696012 5.696022 l 2.198654,-2.310417 2.198664,-2.310418 16.506389,0.02047 16.506385,0.02047 2.05371,2.284376 2.05371,2.284386 12.64862,0.0058 12.64862,0.0058 0.29241,-0.641775 c 0.2654,-0.582463 0.43691,-0.641707 1.85567,-0.640892 l 1.56325,9.03e-4 0.74162,1.374947 0.74162,1.374947 -0.71824,1.319642 -0.71824,1.319641 h -1.58446 c -1.42735,0 -1.61851,-0.0636 -1.92792,-0.641782 l -0.34347,-0.641785 H 121.8799 108.65502 l -2.1559,-2.310417 -2.15592,-2.310417 H 89.149819 73.956426 l -2.126603,2.305964 -2.126612,2.305964 -6.331597,0.0686 -6.331606,0.0686 -0.907295,1.602663 -0.907294,1.60267 -2.823837,-0.002 -2.823847,-0.002 z"
       id="path23" /></g><g
     inkscape:groupmode="layer"
     id="layer3"
     inkscape:label="Capa 3"
     style="display:none"
     transform="translate(-42.558328,-86.058393)"><path
       d="m 76.248185,176.75775 c -0.03843,-1.25043 -1.647113,-5.45726 -3.76447,-9.84458 -2.669756,-5.53191 -3.225912,-8.24934 -3.211762,-15.69299 0.0086,-4.50866 0.117364,-5.57684 0.842337,-8.27354 3.644211,-13.55494 15.677359,-21.81273 32.83217,-22.53121 12.54563,-0.52545 24.62101,3.46728 29.19354,9.65285 0.64081,0.86686 1.28951,1.57612 1.44156,1.57612 0.15204,0 0.33752,-0.40041 0.41218,-0.8898 0.10923,-0.71574 0.15432,-0.63662 0.2307,0.40444 0.0522,0.71186 0.11083,1.65829 0.13028,2.1032 0.0305,0.69917 0.17817,0.80253 1.08834,0.76185 l 1.05301,-0.0471 -0.72717,0.59052 -0.72718,0.59053 1.18737,1.23616 c 2.51702,2.62047 3.63756,6.22568 3.65272,11.75208 0.0111,4.22617 -0.27026,5.64686 -2.88868,14.5605 -0.96712,3.29228 -2.11281,7.29642 -2.54597,8.89809 l -0.78757,2.91209 -0.23271,-2.58854 c -0.12798,-1.42368 -0.57736,-4.91821 -0.99863,-7.7656 -0.42127,-2.84738 -0.85992,-6.2691 -0.97479,-7.6038 -0.29058,-3.37632 -0.28036,-3.35724 -1.46866,-2.74704 -0.5476,0.2812 -2.03729,0.86122 -3.31041,1.28894 -1.27312,0.42772 -2.73388,1.17643 -3.24614,1.66378 -0.51226,0.48734 -0.93137,0.78137 -0.93137,0.65338 0,-0.67581 1.18044,-2.84136 2.79966,-5.13604 1.00342,-1.42199 2.10041,-3.18906 2.43777,-3.92684 0.61127,-1.3368 0.84771,-3.92513 0.38332,-4.19617 -0.13441,-0.0784 -1.59799,0.823 -3.25238,2.0032 -4.04877,2.88829 -7.84516,5.00243 -12.69621,7.0703 -4.4822,1.91064 -12.423578,4.69368 -12.922301,4.5286 -0.176122,-0.0583 0.400968,-0.51922 1.282451,-1.02427 2.71409,-1.55506 5.92181,-4.30833 7.62996,-6.549 1.84717,-2.42304 2.17279,-3.48025 0.73389,-2.38287 -5.49515,4.19091 -11.084647,6.87697 -19.61649,9.42674 l -3.080088,0.92051 1.892863,-1.84821 c 1.807161,-1.76451 3.45271,-4.33656 3.45271,-5.39668 0,-0.75113 -0.429975,-0.60172 -1.486781,0.51667 -2.328231,2.46388 -7.276563,5.65692 -10.990245,7.09171 l -2.34238,0.90502 0.104556,8.19524 c 0.06466,5.06128 -0.02217,8.50457 -0.226896,9.00415 -0.295319,0.7207 -0.33373,0.73571 -0.352129,0.13757 z m 8.695806,-2.9491 c -0.629197,-0.1633 -0.793113,-0.70724 -0.999171,-3.31567 -0.104434,-1.32202 -0.319223,-1.90399 -0.864492,-2.34245 l -0.725539,-0.58339 0.846462,-0.99894 c 0.695601,-0.82091 0.846451,-1.32897 0.846451,-2.85081 0,-2.04206 0.364394,-2.63356 1.612912,-2.61817 l 0.830896,0.01 -0.896067,0.66387 c -0.796476,0.5901 -0.896057,0.87104 -0.896057,2.52814 0,1.44424 -0.144704,1.9943 -0.642288,2.44146 -0.639161,0.57441 -0.639161,0.58117 0,1.38806 0.455442,0.57495 0.642288,1.30913 0.642288,2.52371 0,1.65081 0.531969,2.7298 1.345869,2.7298 0.176983,0 0.23117,0.1456 0.120443,0.32356 -0.209912,0.33727 -0.285627,0.34351 -1.221682,0.10053 z m 12.789005,-0.0437 c 0,-0.18526 0.275804,-0.42375 0.612878,-0.52999 0.657432,-0.20721 1.016329,-1.41157 1.016329,-3.4105 0,-0.68456 0.213199,-1.38993 0.488756,-1.61701 0.581081,-0.47888 0.639711,-1.19039 0.112437,-1.3649 -0.206966,-0.0685 -0.498751,-1.13456 -0.64841,-2.36899 -0.212675,-1.75428 -0.4329,-2.36733 -1.0085,-2.80731 l -0.736419,-0.56288 0.83088,-0.008 c 1.229013,-0.011 1.612923,0.57565 1.612923,2.4632 0,2.02182 0.44972,3.3538 1.13237,3.3538 0.70908,0 0.61363,0.61127 -0.19724,1.26329 -0.54252,0.43624 -0.7406,1.06227 -0.90721,2.86718 -0.117238,1.26998 -0.281732,2.37719 -0.365568,2.46045 -0.366677,0.36411 -1.943236,0.57576 -1.943236,0.26086 z m 12.381944,-0.38044 c -0.50687,-0.50333 -0.65168,-1.07856 -0.65168,-2.58853 0,-1.50998 -0.14481,-2.08521 -0.65169,-2.58853 -0.35842,-0.35594 -0.65167,-0.75772 -0.65167,-0.89288 0,-0.13516 0.29325,-0.42759 0.65167,-0.64987 0.52935,-0.32828 0.65169,-0.75456 0.65169,-2.27081 0,-2.06282 0.61925,-3.30492 1.64767,-3.30492 0.34827,0 0.63321,0.14561 0.63321,0.32358 0,0.17796 -0.20426,0.32356 -0.4539,0.32356 -0.61157,0 -0.84946,0.72009 -0.84946,2.57135 0,1.08605 -0.20567,1.80738 -0.68943,2.41811 -0.66052,0.83383 -0.66468,0.88833 -0.0994,1.29878 0.43694,0.31726 0.62581,0.98662 0.72798,2.57982 0.10813,1.68634 0.2705,2.22184 0.75109,2.47725 0.33722,0.17922 0.61315,0.46634 0.61315,0.63804 0,0.5365 -0.94788,0.34163 -1.62921,-0.33495 z m 13.35945,0.33495 c 0,-0.1717 0.29326,-0.46802 0.65168,-0.65853 0.5191,-0.27586 0.65169,-0.67749 0.65169,-1.97404 0,-1.59808 0.41081,-2.82292 1.09479,-3.26415 0.22417,-0.1446 0.12618,-0.46367 -0.27888,-0.90813 -0.44058,-0.48343 -0.66459,-1.31115 -0.76077,-2.8109 -0.11157,-1.74019 -0.24712,-2.15447 -0.7474,-2.28438 -0.7712,-0.20027 -0.80116,-0.73201 -0.0409,-0.72541 1.15561,0.01 1.47274,0.55621 1.69006,2.9106 0.15173,1.64381 0.38009,2.45641 0.76985,2.73942 0.72106,0.52358 0.69908,0.87286 -0.0975,1.55021 -0.5175,0.44001 -0.65168,0.9545 -0.65168,2.49866 0,1.51314 -0.14458,2.08814 -0.65168,2.5917 -0.68135,0.67658 -1.62921,0.87145 -1.62921,0.33495 z m -19.22458,-6.15915 c 0,-3.23566 0.0814,-3.8828 0.48876,-3.8828 0.4073,0 0.48877,0.64714 0.48877,3.8828 0,3.23567 -0.0815,3.8828 -0.48877,3.8828 -0.40731,0 -0.48876,-0.64713 -0.48876,-3.8828 z m -13.987488,1.41242 c -1.48194,-1.87085 -0.270873,-3.93846 2.175768,-3.71465 0.224015,0.0206 0.407302,0.24555 0.407302,0.50011 0,0.25456 0.329913,0.50937 0.73315,0.56624 1.007964,0.14216 1.130021,1.50037 0.236231,2.62872 -0.949541,1.19872 -2.611173,1.20787 -3.552451,0.0196 z m 25.717738,0.20542 c -0.8195,-0.81378 -0.86429,-2.62917 -0.0815,-3.30168 1.02706,-0.88232 1.95869,-0.90904 2.51098,-0.072 0.27739,0.4204 0.70472,0.688 0.94962,0.59468 0.58083,-0.22133 0.90329,0.99758 0.52517,1.98515 -0.56785,1.48316 -2.76109,1.9291 -3.90431,0.79387 z"
       style="display:inline;fill:#333333;fill-opacity:1;stroke-width:1.22722"
       id="path1-0" /></g></svg>
