<svg id="visual" viewBox="0 0 900 600" width="900" height="600" xmlns="http://www.w3.org/2000/svg" xmlns:xlink="http://www.w3.org/1999/xlink" version="1.1"><g transform="translate(402.95309160001125 305.18803168264446)"><path d="M171.1 -291.1C225.3 -265.1 275 -226.3 299.6 -175.7C324.2 -125 323.6 -62.5 296.5 -15.6C269.5 31.3 215.9 62.5 181.2 95.6C146.4 128.6 130.5 163.5 103.4 206.3C76.3 249.2 38.2 300.1 -5.2 309.2C-48.7 318.3 -97.3 285.6 -127.4 244.4C-157.4 203.3 -168.8 153.6 -183.9 111.5C-199.1 69.3 -218 34.7 -222.4 -2.5C-226.7 -39.7 -216.4 -79.3 -197.1 -114.3C-177.7 -149.2 -149.4 -179.4 -115 -216.7C-80.7 -254.1 -40.3 -298.5 9.1 -314.3C58.5 -330 117 -317 171.1 -291.1" fill="#BB004B"></path></g></svg>