<svg xmlns="http://www.w3.org/2000/svg" version="1.1" xmlns:xlink="http://www.w3.org/1999/xlink" viewBox="0 0 700 700" style="overflow: hidden; display: block;" width="700" height="700"><defs></defs><g id="two-0" transform="matrix(1 0 0 1 0 0)" opacity="1"><path transform="matrix(1 0 0 1 350 350)" id="two-2" d="M 267.083813 78.422883 C 247.642373 98.322022 216.961424 106.717804 198.663562 127.673319 C 183.18612 145.398765 175.265915 169.371069 165.185705 190.634466 C 151.510186 219.481881 159.558378 276.51378 127.809921 279.86469 C 64.269312 286.57112 81.201881 117.956234 17.373117 120.832683 C -13.652254 122.230844 1.584011 207.207166 -29.136491 202.648741 C -60.219664 198.036502 -21.657823 123.064924 -50.129818 109.768988 C -77.394887 97.036666 -101.322715 148.146692 -131.2323 151.450146 C -156.421764 154.232273 -197.129213 156.001718 -205.550143 132.099055 C -218.0794 96.534973 -124.290563 75.695547 -137.439405 40.35585 C -158.741208 -16.89628 -292.407345 55.421776 -318.09781 0 C -330.781516 -27.362432 -299.788746 -62.847333 -275.660026 -80.941087 C -244.967514 -103.956928 -182.969431 -71.99069 -161.70031 -103.918479 C -141.672234 -133.983295 -185.901864 -175.266655 -183.076011 -211.280979 C -180.189496 -248.068409 -174.313889 -294.589381 -144.403955 -316.200554 C -118.051601 -335.241227 -78.358196 -317.05619 -45.940478 -319.523043 C -14.966132 -321.880062 23.357529 -350.123622 47.536082 -330.620717 C 95.886963 -291.619931 30.352334 -194.510855 65.410712 -143.229483 C 73.932136 -130.764836 93.823849 -131.188954 106.275214 -122.648137 C 119.163064 -113.80792 137.147557 -105.903493 141.37926 -90.858934 C 146.411286 -72.969063 115.766509 -52.693075 125.463343 -36.839362 C 159.692439 19.123056 295.754735 -60.627465 320.809352 -0.000001 C 332.790454 28.992015 289.006275 55.984312 267.083813 78.422883 Z " fill="hsl(32, 100%, 51%)" stroke="undefined" stroke-width="1" stroke-opacity="1" fill-opacity="1" visibility="visible" stroke-linecap="butt" stroke-linejoin="miter" stroke-miterlimit="4"></path></g></svg>